<svg xmlns="http://www.w3.org/2000/svg" xmlns:xlink="http://www.w3.org/1999/xlink" contentStyleType="text/css" data-diagram-type="ACTIVITY" height="632px" preserveAspectRatio="none" style="width:978px;height:632px;background:#FFFFFF;" version="1.1" viewBox="0 0 978 632" width="978px" zoomAndPan="magnify"><defs/><g><rect fill="none" height="20.9531" style="stroke:none;stroke-width:1;" width="945.4409" x="15" y="12.7451"/><ellipse cx="162.8916" cy="48.6982" fill="#222222" rx="10" ry="10" style="stroke:#222222;stroke-width:1;"/><rect fill="#F1F1F1" height="33.9688" rx="12.5" ry="12.5" style="stroke:#181818;stroke-width:0.5;" width="235.7715" x="45.0059" y="78.6982"/><text fill="#000000" font-family="sans-serif" font-size="12" lengthAdjust="spacing" textLength="215.7715" x="55.0059" y="99.8369">Ch&#7885;n ch&#7913;c n&#259;ng "Th&#234;m v&#249;ng tr&#7891;ng"</text><rect fill="#F1F1F1" height="33.9688" rx="12.5" ry="12.5" style="stroke:#181818;stroke-width:0.5;" width="246.2129" x="39.7852" y="132.667"/><text fill="#000000" font-family="sans-serif" font-size="12" lengthAdjust="spacing" textLength="226.2129" x="49.7852" y="153.8057">Nh&#7853;p M&#227; v&#249;ng, T&#234;n v&#249;ng v&#224; Di&#7879;n t&#237;ch</text><rect fill="#F1F1F1" height="33.9688" rx="12.5" ry="12.5" style="stroke:#181818;stroke-width:0.5;" width="283.3496" x="21.2168" y="186.6357"/><text fill="#000000" font-family="sans-serif" font-size="12" lengthAdjust="spacing" textLength="263.3496" x="31.2168" y="207.7744">Ch&#7885;n &#272;&#7883;a gi&#7899;i (T&#7881;nh/Huy&#7879;n/X&#227;) t&#7915; danh s&#225;ch</text><rect fill="#F1F1F1" height="33.9688" rx="12.5" ry="12.5" style="stroke:#181818;stroke-width:0.5;" width="283.7832" x="21" y="240.6045"/><text fill="#000000" font-family="sans-serif" font-size="12" lengthAdjust="spacing" textLength="263.7832" x="31" y="261.7432">Ch&#7885;n Ch&#7911; s&#7903; h&#7919;u (lookup b&#7843;ng chu_so_huu)</text><rect fill="#F1F1F1" height="33.9688" rx="12.5" ry="12.5" style="stroke:#181818;stroke-width:0.5;" width="169.5137" x="78.1348" y="294.5732"/><text fill="#000000" font-family="sans-serif" font-size="12" lengthAdjust="spacing" textLength="149.5137" x="88.1348" y="315.7119">Nh&#7845;n n&#250;t "L&#432;u h&#7879; th&#7889;ng"</text><rect fill="#F1F1F1" height="33.9688" rx="12.5" ry="12.5" style="stroke:#181818;stroke-width:0.5;" width="265.0156" x="30.3838" y="544.4482"/><text fill="#000000" font-family="sans-serif" font-size="12" lengthAdjust="spacing" textLength="245.0156" x="40.3838" y="565.5869">Xem danh s&#225;ch v&#249;ng tr&#7891;ng v&#7915;a c&#7853;p nh&#7853;t</text><ellipse cx="162.8916" cy="609.417" fill="none" rx="11" ry="11" style="stroke:#222222;stroke-width:1;"/><ellipse cx="162.8916" cy="609.417" fill="#222222" rx="6" ry="6" style="stroke:#222222;stroke-width:1;"/><line style="stroke:#000000;stroke-width:1.5;" x1="15" x2="15" y1="12.7451" y2="620.417"/><rect fill="#F1F1F1" height="33.9688" rx="12.5" ry="12.5" style="stroke:#181818;stroke-width:0.5;" width="183.5645" x="524.9082" y="348.542"/><text fill="#000000" font-family="sans-serif" font-size="12" lengthAdjust="spacing" textLength="163.5645" x="534.9082" y="369.6807">Ki&#7875;m tra t&#237;nh h&#7907;p l&#7879; d&#7919; li&#7879;u</text><polygon fill="#F1F1F1" points="495.293,402.5107,738.0879,402.5107,750.0879,414.5107,738.0879,426.5107,495.293,426.5107,483.293,414.5107,495.293,402.5107" style="stroke:#181818;stroke-width:0.5;"/><text fill="#000000" font-family="sans-serif" font-size="12" lengthAdjust="spacing" textLength="242.7949" x="495.293" y="418.665">D&#7919; li&#7879;u &#273;&#7847;y &#273;&#7911; v&#224; M&#227; v&#249;ng ch&#432;a t&#7891;n t&#7841;i?</text><text fill="#000000" font-family="sans-serif" font-size="11" lengthAdjust="spacing" textLength="35.3042" x="447.9888" y="411.9165">H&#7907;p l&#7879;</text><text fill="#000000" font-family="sans-serif" font-size="11" lengthAdjust="spacing" textLength="15.9146" x="750.0879" y="411.9165">L&#7895;i</text><rect fill="#F1F1F1" height="33.9688" rx="12.5" ry="12.5" style="stroke:#181818;stroke-width:0.5;" width="255.1426" x="324.1699" y="436.5107"/><text fill="#000000" font-family="sans-serif" font-size="12" lengthAdjust="spacing" textLength="154.7988" x="334.1699" y="457.6494">Ghi b&#7843;n ghi m&#7899;i v&#224;o b&#7843;ng</text><text fill="#000000" font-family="sans-serif" font-size="12" font-weight="bold" lengthAdjust="spacing" textLength="76.5293" x="492.7832" y="457.6494">vung_trong</text><rect fill="#F1F1F1" height="33.9688" rx="12.5" ry="12.5" style="stroke:#181818;stroke-width:0.5;" width="273.916" x="314.7832" y="490.4795"/><text fill="#000000" font-family="sans-serif" font-size="12" lengthAdjust="spacing" textLength="253.916" x="324.7832" y="511.6182">Th&#244;ng b&#225;o "Th&#234;m v&#249;ng tr&#7891;ng th&#224;nh c&#244;ng"</text><rect fill="#F1F1F1" height="33.9688" rx="12.5" ry="12.5" style="stroke:#181818;stroke-width:0.5;" width="345.8809" x="608.6992" y="436.5107"/><text fill="#000000" font-family="sans-serif" font-size="12" lengthAdjust="spacing" textLength="325.8809" x="618.6992" y="457.6494">Hi&#7875;n th&#7883; th&#244;ng b&#225;o l&#7895;i (Tr&#249;ng m&#227; ho&#7863;c thi&#7871;u th&#244;ng tin)</text><line style="stroke:#000000;stroke-width:1.5;" x1="308.7832" x2="308.7832" y1="12.7451" y2="620.417"/><line style="stroke:#000000;stroke-width:1.5;" x1="958.5801" x2="958.5801" y1="12.7451" y2="620.417"/><line style="stroke:#181818;stroke-width:1;" x1="162.8916" x2="162.8916" y1="58.6982" y2="78.6982"/><polygon fill="#181818" points="158.8916,68.6982,162.8916,78.6982,166.8916,68.6982,162.8916,72.6982" style="stroke:#181818;stroke-width:1;"/><line style="stroke:#181818;stroke-width:1;" x1="162.8916" x2="162.8916" y1="112.667" y2="132.667"/><polygon fill="#181818" points="158.8916,122.667,162.8916,132.667,166.8916,122.667,162.8916,126.667" style="stroke:#181818;stroke-width:1;"/><line style="stroke:#181818;stroke-width:1;" x1="162.8916" x2="162.8916" y1="166.6357" y2="186.6357"/><polygon fill="#181818" points="158.8916,176.6357,162.8916,186.6357,166.8916,176.6357,162.8916,180.6357" style="stroke:#181818;stroke-width:1;"/><line style="stroke:#181818;stroke-width:1;" x1="162.8916" x2="162.8916" y1="220.6045" y2="240.6045"/><polygon fill="#181818" points="158.8916,230.6045,162.8916,240.6045,166.8916,230.6045,162.8916,234.6045" style="stroke:#181818;stroke-width:1;"/><line style="stroke:#181818;stroke-width:1;" x1="162.8916" x2="162.8916" y1="274.5732" y2="294.5732"/><polygon fill="#181818" points="158.8916,284.5732,162.8916,294.5732,166.8916,284.5732,162.8916,288.5732" style="stroke:#181818;stroke-width:1;"/><line style="stroke:#181818;stroke-width:1;" x1="162.8916" x2="162.8916" y1="578.417" y2="598.417"/><polygon fill="#181818" points="158.8916,588.417,162.8916,598.417,166.8916,588.417,162.8916,592.417" style="stroke:#181818;stroke-width:1;"/><line style="stroke:#181818;stroke-width:1;" x1="451.7412" x2="451.7412" y1="470.4795" y2="490.4795"/><polygon fill="#181818" points="447.7412,480.4795,451.7412,490.4795,455.7412,480.4795,451.7412,484.4795" style="stroke:#181818;stroke-width:1;"/><line style="stroke:#181818;stroke-width:1;" x1="483.293" x2="451.7412" y1="414.5107" y2="414.5107"/><line style="stroke:#181818;stroke-width:1;" x1="451.7412" x2="451.7412" y1="414.5107" y2="436.5107"/><polygon fill="#181818" points="447.7412,426.5107,451.7412,436.5107,455.7412,426.5107,451.7412,430.5107" style="stroke:#181818;stroke-width:1;"/><line style="stroke:#181818;stroke-width:1;" x1="750.0879" x2="781.6396" y1="414.5107" y2="414.5107"/><line style="stroke:#181818;stroke-width:1;" x1="781.6396" x2="781.6396" y1="414.5107" y2="436.5107"/><polygon fill="#181818" points="777.6396,426.5107,781.6396,436.5107,785.6396,426.5107,781.6396,430.5107" style="stroke:#181818;stroke-width:1;"/><line style="stroke:#181818;stroke-width:1;" x1="451.7412" x2="451.7412" y1="524.4482" y2="529.4482"/><line style="stroke:#181818;stroke-width:1;" x1="451.7412" x2="162.8916" y1="529.4482" y2="529.4482"/><line style="stroke:#181818;stroke-width:1;" x1="162.8916" x2="162.8916" y1="529.4482" y2="544.4482"/><polygon fill="#181818" points="158.8916,534.4482,162.8916,544.4482,166.8916,534.4482,162.8916,538.4482" style="stroke:#181818;stroke-width:1;"/><line style="stroke:#181818;stroke-width:1;" x1="616.6904" x2="616.6904" y1="382.5107" y2="402.5107"/><polygon fill="#181818" points="612.6904,392.5107,616.6904,402.5107,620.6904,392.5107,616.6904,396.5107" style="stroke:#181818;stroke-width:1;"/><line style="stroke:#181818;stroke-width:1;" x1="162.8916" x2="162.8916" y1="328.542" y2="333.542"/><line style="stroke:#181818;stroke-width:1;" x1="162.8916" x2="616.6904" y1="333.542" y2="333.542"/><line style="stroke:#181818;stroke-width:1;" x1="616.6904" x2="616.6904" y1="333.542" y2="348.542"/><polygon fill="#181818" points="612.6904,338.542,616.6904,348.542,620.6904,338.542,616.6904,342.542" style="stroke:#181818;stroke-width:1;"/><text fill="#000000" font-family="sans-serif" font-size="18" lengthAdjust="spacing" textLength="103.7021" x="110.0405" y="29.4531">Ng&#432;&#7901;i d&#249;ng</text><text fill="#000000" font-family="sans-serif" font-size="18" lengthAdjust="spacing" textLength="82.6436" x="592.3599" y="29.4531">H&#7879; th&#7889;ng</text><!--SRC=[RLB1Qjj04BtlLmm-oQOGqgDqAAMXCJJDfJxaPXHPqIwHPeMqg-BYMmwXX4933ZsKqXWJGbD2VGYKIeSUrlW_zaywgoIsARdiBFlUphmtC-Mnm3mimWnUHafKGerVIrJln8SOjf-pSeqMXNo_XhOPc-mdoxbjlWaOcJ-OJ5Yfma8n_nMtpIU4YCAF271nWWbq1jpSP50v8gZ2DXUOT0BcxtDRt-RmripkiMSmC3VumAlC9Um8svmYA7CRyM2LU_7PDcSX90H-5U0DRFCH-LPVZnrvwy3Ckg1iynD68N8epNJphmlNKDhcEz3jbmOlbV9Ovt1ewnbLZRWUbdB8jUu-2Bn2G5ChwEmjvzfzEWL5vtbhWKtw6myJvhyXKISPcGoTQgfFo2o7rB56L11IPqa7J1o1jxD-WCMvhQ_7Bf0-vttL5TAqd8VEqWMrmjPJyO8CyXZ1ww-ITnc0lyl5lGz8w9QrxQ5Kyj5ShrTfJ8Qga9ZqUe7xGfEv8-JGJEMJOw92vf9iH8v6XkEqZC7RiyqNqPRiEx_ODk3CSLV9KaUXuHHjjepCS6dhtn6HXAt_waUo4jXrIaQn2YFEOXo9eoUsop-8ius1_YUoed674BNRX6wfL43xAFD_]--></g></svg>