<svg xmlns="http://www.w3.org/2000/svg" xmlns:xlink="http://www.w3.org/1999/xlink" contentStyleType="text/css" data-diagram-type="ACTIVITY" height="760px" preserveAspectRatio="none" style="width:678px;height:760px;background:#FFFFFF;" version="1.1" viewBox="0 0 678 760" width="678px" zoomAndPan="magnify"><defs/><g><rect fill="none" height="20.9531" style="stroke:none;stroke-width:1;" width="645.2378" x="15" y="12.7451"/><ellipse cx="172.0586" cy="48.6982" fill="#222222" rx="10" ry="10" style="stroke:#222222;stroke-width:1;"/><rect fill="#F1F1F1" height="33.9688" rx="12.5" ry="12.5" style="stroke:#181818;stroke-width:0.5;" width="217.3848" x="63.3662" y="78.6982"/><text fill="#000000" font-family="sans-serif" font-size="12" lengthAdjust="spacing" textLength="197.3848" x="73.3662" y="99.8369">Ch&#7885;n v&#249;ng tr&#7891;ng c&#7847;n ghi nh&#7853;t k&#253;</text><rect fill="#F1F1F1" height="33.9688" rx="12.5" ry="12.5" style="stroke:#181818;stroke-width:0.5;" width="270.4063" x="36.8555" y="132.667"/><text fill="#000000" font-family="sans-serif" font-size="12" lengthAdjust="spacing" textLength="250.4063" x="46.8555" y="153.8057">Ch&#7885;n ch&#7913;c n&#259;ng "Th&#234;m nh&#7853;t k&#253; canh t&#225;c"</text><rect fill="#F1F1F1" height="33.9688" rx="12.5" ry="12.5" style="stroke:#181818;stroke-width:0.5;" width="302.1172" x="21" y="186.6357"/><text fill="#000000" font-family="sans-serif" font-size="12" lengthAdjust="spacing" textLength="282.1172" x="31" y="207.7744">Ch&#7885;n lo&#7841;i ho&#7841;t &#273;&#7897;ng (B&#243;n ph&#226;n / Phun thu&#7889;c...)</text><rect fill="#F1F1F1" height="33.9688" rx="12.5" ry="12.5" style="stroke:#181818;stroke-width:0.5;" width="195.2832" x="74.417" y="348.542"/><text fill="#000000" font-family="sans-serif" font-size="12" lengthAdjust="spacing" textLength="175.2832" x="84.417" y="369.6807">Ch&#7885;n t&#234;n v&#7853;t t&#432; t&#7915; danh s&#225;ch</text><rect fill="#F1F1F1" height="33.9688" rx="12.5" ry="12.5" style="stroke:#181818;stroke-width:0.5;" width="288.6641" x="27.7266" y="402.5107"/><text fill="#000000" font-family="sans-serif" font-size="12" lengthAdjust="spacing" textLength="268.6641" x="37.7266" y="423.6494">Nh&#7853;p li&#7873;u l&#432;&#7907;ng, m&#7909;c &#273;&#237;ch v&#224; ng&#224;y th&#7921;c hi&#7879;n</text><rect fill="#F1F1F1" height="33.9688" rx="12.5" ry="12.5" style="stroke:#181818;stroke-width:0.5;" width="144.9102" x="99.6035" y="456.4795"/><text fill="#000000" font-family="sans-serif" font-size="12" lengthAdjust="spacing" textLength="124.9102" x="109.6035" y="477.6182">Nh&#7845;n "X&#225;c nh&#7853;n l&#432;u"</text><rect fill="#F1F1F1" height="33.9688" rx="12.5" ry="12.5" style="stroke:#181818;stroke-width:0.5;" width="290.8379" x="26.6396" y="672.3545"/><text fill="#000000" font-family="sans-serif" font-size="12" lengthAdjust="spacing" textLength="270.8379" x="36.6396" y="693.4932">Nh&#7853;n th&#244;ng b&#225;o "&#272;&#227; l&#432;u nh&#7853;t k&#253; th&#224;nh c&#244;ng"</text><ellipse cx="172.0586" cy="737.3232" fill="none" rx="11" ry="11" style="stroke:#222222;stroke-width:1;"/><ellipse cx="172.0586" cy="737.3232" fill="#222222" rx="6" ry="6" style="stroke:#222222;stroke-width:1;"/><line style="stroke:#000000;stroke-width:1.5;" x1="15" x2="15" y1="12.7451" y2="748.3232"/><rect fill="#F1F1F1" height="33.9688" rx="12.5" ry="12.5" style="stroke:#181818;stroke-width:0.5;" width="240.9805" x="373.2568" y="240.6045"/><text fill="#000000" font-family="sans-serif" font-size="12" lengthAdjust="spacing" textLength="220.9805" x="383.2568" y="261.7432">Truy v&#7845;n danh m&#7909;c v&#7853;t t&#432; t&#432;&#417;ng &#7913;ng</text><rect fill="#F1F1F1" height="33.9688" rx="12.5" ry="12.5" style="stroke:#181818;stroke-width:0.5;" width="301.2207" x="343.1367" y="294.5732"/><text fill="#000000" font-family="sans-serif" font-size="12" lengthAdjust="spacing" textLength="281.2207" x="353.1367" y="315.7119">Hi&#7875;n th&#7883; danh s&#225;ch Ph&#226;n b&#243;n ho&#7863;c Thu&#7889;c BVTV</text><rect fill="#F1F1F1" height="33.9688" rx="12.5" ry="12.5" style="stroke:#181818;stroke-width:0.5;" width="298.3555" x="344.5693" y="510.4482"/><text fill="#000000" font-family="sans-serif" font-size="12" lengthAdjust="spacing" textLength="278.3555" x="354.5693" y="531.5869">Ki&#7875;m tra logic d&#7919; li&#7879;u (Ng&#224;y th&#225;ng, &#273;&#7883;nh d&#7841;ng)</text><rect fill="#F1F1F1" height="33.9688" rx="12.5" ry="12.5" style="stroke:#181818;stroke-width:0.5;" width="274.291" x="356.6016" y="564.417"/><text fill="#000000" font-family="sans-serif" font-size="12" lengthAdjust="spacing" textLength="139.6641" x="366.6016" y="585.5557">L&#432;u th&#244;ng tin v&#224;o b&#7843;ng</text><text fill="#000000" font-family="sans-serif" font-size="12" font-weight="bold" lengthAdjust="spacing" textLength="110.8125" x="510.0801" y="585.5557">lich_su_canh_tac</text><rect fill="#F1F1F1" height="33.9688" rx="12.5" ry="12.5" style="stroke:#181818;stroke-width:0.5;" width="321.2598" x="333.1172" y="618.3857"/><text fill="#000000" font-family="sans-serif" font-size="12" lengthAdjust="spacing" textLength="301.2598" x="343.1172" y="639.5244">T&#7841;o li&#234;n k&#7871;t (Foreign Key) v&#7899;i b&#7843;ng v&#7853;t t&#432; &#273;&#227; ch&#7885;n</text><line style="stroke:#000000;stroke-width:1.5;" x1="327.1172" x2="327.1172" y1="12.7451" y2="748.3232"/><line style="stroke:#000000;stroke-width:1.5;" x1="658.377" x2="658.377" y1="12.7451" y2="748.3232"/><line style="stroke:#181818;stroke-width:1;" x1="172.0586" x2="172.0586" y1="58.6982" y2="78.6982"/><polygon fill="#181818" points="168.0586,68.6982,172.0586,78.6982,176.0586,68.6982,172.0586,72.6982" style="stroke:#181818;stroke-width:1;"/><line style="stroke:#181818;stroke-width:1;" x1="172.0586" x2="172.0586" y1="112.667" y2="132.667"/><polygon fill="#181818" points="168.0586,122.667,172.0586,132.667,176.0586,122.667,172.0586,126.667" style="stroke:#181818;stroke-width:1;"/><line style="stroke:#181818;stroke-width:1;" x1="172.0586" x2="172.0586" y1="166.6357" y2="186.6357"/><polygon fill="#181818" points="168.0586,176.6357,172.0586,186.6357,176.0586,176.6357,172.0586,180.6357" style="stroke:#181818;stroke-width:1;"/><line style="stroke:#181818;stroke-width:1;" x1="172.0586" x2="172.0586" y1="382.5107" y2="402.5107"/><polygon fill="#181818" points="168.0586,392.5107,172.0586,402.5107,176.0586,392.5107,172.0586,396.5107" style="stroke:#181818;stroke-width:1;"/><line style="stroke:#181818;stroke-width:1;" x1="172.0586" x2="172.0586" y1="436.4795" y2="456.4795"/><polygon fill="#181818" points="168.0586,446.4795,172.0586,456.4795,176.0586,446.4795,172.0586,450.4795" style="stroke:#181818;stroke-width:1;"/><line style="stroke:#181818;stroke-width:1;" x1="172.0586" x2="172.0586" y1="706.3232" y2="726.3232"/><polygon fill="#181818" points="168.0586,716.3232,172.0586,726.3232,176.0586,716.3232,172.0586,720.3232" style="stroke:#181818;stroke-width:1;"/><line style="stroke:#181818;stroke-width:1;" x1="493.7471" x2="493.7471" y1="274.5732" y2="294.5732"/><polygon fill="#181818" points="489.7471,284.5732,493.7471,294.5732,497.7471,284.5732,493.7471,288.5732" style="stroke:#181818;stroke-width:1;"/><line style="stroke:#181818;stroke-width:1;" x1="493.7471" x2="493.7471" y1="544.417" y2="564.417"/><polygon fill="#181818" points="489.7471,554.417,493.7471,564.417,497.7471,554.417,493.7471,558.417" style="stroke:#181818;stroke-width:1;"/><line style="stroke:#181818;stroke-width:1;" x1="493.7471" x2="493.7471" y1="598.3857" y2="618.3857"/><polygon fill="#181818" points="489.7471,608.3857,493.7471,618.3857,497.7471,608.3857,493.7471,612.3857" style="stroke:#181818;stroke-width:1;"/><line style="stroke:#181818;stroke-width:1;" x1="172.0586" x2="172.0586" y1="220.6045" y2="225.6045"/><line style="stroke:#181818;stroke-width:1;" x1="172.0586" x2="493.7471" y1="225.6045" y2="225.6045"/><line style="stroke:#181818;stroke-width:1;" x1="493.7471" x2="493.7471" y1="225.6045" y2="240.6045"/><polygon fill="#181818" points="489.7471,230.6045,493.7471,240.6045,497.7471,230.6045,493.7471,234.6045" style="stroke:#181818;stroke-width:1;"/><line style="stroke:#181818;stroke-width:1;" x1="493.7471" x2="493.7471" y1="328.542" y2="333.542"/><line style="stroke:#181818;stroke-width:1;" x1="493.7471" x2="172.0586" y1="333.542" y2="333.542"/><line style="stroke:#181818;stroke-width:1;" x1="172.0586" x2="172.0586" y1="333.542" y2="348.542"/><polygon fill="#181818" points="168.0586,338.542,172.0586,348.542,176.0586,338.542,172.0586,342.542" style="stroke:#181818;stroke-width:1;"/><line style="stroke:#181818;stroke-width:1;" x1="172.0586" x2="172.0586" y1="490.4482" y2="495.4482"/><line style="stroke:#181818;stroke-width:1;" x1="172.0586" x2="493.7471" y1="495.4482" y2="495.4482"/><line style="stroke:#181818;stroke-width:1;" x1="493.7471" x2="493.7471" y1="495.4482" y2="510.4482"/><polygon fill="#181818" points="489.7471,500.4482,493.7471,510.4482,497.7471,500.4482,493.7471,504.4482" style="stroke:#181818;stroke-width:1;"/><line style="stroke:#181818;stroke-width:1;" x1="493.7471" x2="493.7471" y1="652.3545" y2="657.3545"/><line style="stroke:#181818;stroke-width:1;" x1="493.7471" x2="172.0586" y1="657.3545" y2="657.3545"/><line style="stroke:#181818;stroke-width:1;" x1="172.0586" x2="172.0586" y1="657.3545" y2="672.3545"/><polygon fill="#181818" points="168.0586,662.3545,172.0586,672.3545,176.0586,662.3545,172.0586,666.3545" style="stroke:#181818;stroke-width:1;"/><text fill="#000000" font-family="sans-serif" font-size="18" lengthAdjust="spacing" textLength="86.8799" x="127.6187" y="29.4531">Nh&#224; n&#244;ng</text><text fill="#000000" font-family="sans-serif" font-size="18" lengthAdjust="spacing" textLength="82.6436" x="451.4253" y="29.4531">H&#7879; th&#7889;ng</text><!--SRC=[RPB1Inj15CRl-IiUUugXfFTuKoY24ZmiuYqa4vbPJDw6P3OGoALuo444Gq_5IrAHKejegI3k81ucvF-O_wJVIs9TQ0_BmEnxt-zxtvjntVWPiNzaFIuDRBDlIxLT4zm5qz0_ioRR3-uBJXNoxqpQ9CGcv7UMJltBzjzQXUE78bwSeJIAZR_j5kf8DTcGzNCLlRTqqf3F4p9oM5fCW_kAtlAE_ytKC_uRqqSwD1cJDLbmKrMjLhUsIwNnNd0JtE5ABDVYVZQYOSXlcDf2wGPte-G2QBjya6yvXp3yiGPzBmdkZ5S2v-kE0NmPe0JP4hfOUb8KhxcqSnGV2RYOrDiGrjzo4HRSpu8eS7K9eKSTK3zdr5a-17VD-iF6vcBgxy0UYh3siz7ArYz51kKJthHZikWOSkj0MKIow3z9xCjaNIoiYMnregWTtFsAFCceND_e-xdW9Uvps6mZVDR8jNO0LVdzA3jFPFkpb5eXXrkgL3g9Cer1rf15DcnJLIfeYT6S0Y0Pd8RyrLBvKze_IJJJ_ibe2xcug-HDupqa37szUZ0N_4-izVM86nyj3_reSObw6Rhueb0nWtybTGXZODFU7m00]--></g></svg>