<svg xmlns="http://www.w3.org/2000/svg" xmlns:xlink="http://www.w3.org/1999/xlink" contentStyleType="text/css" data-diagram-type="DESCRIPTION" height="635px" preserveAspectRatio="none" style="width:884px;height:635px;background:#FFFFFF;" version="1.1" viewBox="0 0 884 635" width="884px" zoomAndPan="magnify"><defs/><g><!--cluster Presentation Layer (Frontend)--><g class="cluster" data-entity="Presentation Layer .Frontend." data-source-line="3" data-uid="ent0002" id="cluster_Presentation Layer .Frontend."><path d="M8.5,106 L249.8379,106 A3.75,3.75 0 0 1 252.3379,108.5 L259.3379,128.2969 L259.5,128.2969 A2.5,2.5 0 0 1 262,130.7969 L262,358.5 A2.5,2.5 0 0 1 259.5,361 L8.5,361 A2.5,2.5 0 0 1 6,358.5 L6,108.5 A2.5,2.5 0 0 1 8.5,106" fill="none" style="stroke:#000000;stroke-width:1.5;"/><line style="stroke:#000000;stroke-width:1.5;" x1="6" x2="259.3379" y1="128.2969" y2="128.2969"/><text fill="#000000" font-family="sans-serif" font-size="14" font-weight="bold" lengthAdjust="spacing" textLength="240.3379" x="10" y="120.9951">Presentation Layer (Frontend)</text></g><!--cluster Application Logic Layer (Backend)--><g class="cluster" data-entity="Application Logic Layer .Backend." data-source-line="9" data-uid="ent0006" id="cluster_Application Logic Layer .Backend."><path d="M289.5,257 L559.9795,257 A3.75,3.75 0 0 1 562.4795,259.5 L569.4795,279.2969 L569.5,279.2969 A2.5,2.5 0 0 1 572,281.7969 L572,585.5 A2.5,2.5 0 0 1 569.5,588 L289.5,588 A2.5,2.5 0 0 1 287,585.5 L287,259.5 A2.5,2.5 0 0 1 289.5,257" fill="none" style="stroke:#000000;stroke-width:1.5;"/><line style="stroke:#000000;stroke-width:1.5;" x1="287" x2="569.4795" y1="279.2969" y2="279.2969"/><text fill="#000000" font-family="sans-serif" font-size="14" font-weight="bold" lengthAdjust="spacing" textLength="269.4795" x="291" y="271.9951">Application Logic Layer (Backend)</text></g><!--cluster Data Layer (Database)--><g class="cluster" data-entity="Data Layer .Database." data-source-line="15" data-uid="ent0010" id="cluster_Data Layer .Database."><path d="M600.5,410 L779.6514,410 A3.75,3.75 0 0 1 782.1514,412.5 L789.1514,432.2969 L874.5,432.2969 A2.5,2.5 0 0 1 877,434.7969 L877,625.5 A2.5,2.5 0 0 1 874.5,628 L600.5,628 A2.5,2.5 0 0 1 598,625.5 L598,412.5 A2.5,2.5 0 0 1 600.5,410" fill="none" style="stroke:#000000;stroke-width:1.5;"/><line style="stroke:#000000;stroke-width:1.5;" x1="598" x2="789.1514" y1="432.2969" y2="432.2969"/><text fill="#000000" font-family="sans-serif" font-size="14" font-weight="bold" lengthAdjust="spacing" textLength="178.1514" x="602" y="424.9951">Data Layer (Database)</text></g><!--cluster PostgreSQL--><g class="cluster" data-entity="PostgreSQL" data-source-line="16" data-uid="ent0011" id="cluster_PostgreSQL"><path d="M630,471 C630,461 737.5,461 737.5,461 C737.5,461 845,461 845,471 L845,586 C845,596 737.5,596 737.5,596 C737.5,596 630,596 630,586 L630,471" fill="none" style="stroke:#181818;stroke-width:1;"/><path d="M630,471 C630,481 737.5,481 737.5,481 C737.5,481 845,481 845,471" fill="none" style="stroke:#181818;stroke-width:1;"/><text fill="#000000" font-family="sans-serif" font-size="14" font-weight="bold" lengthAdjust="spacing" textLength="92.2305" x="691.3848" y="495.9951">PostgreSQL</text></g><!--entity Vue.js SPA--><g class="entity" data-entity="Vue.js SPA" data-source-line="4" data-uid="ent0003" id="entity_Vue.js SPA"><rect fill="#F1F1F1" height="52.5938" rx="2.5" ry="2.5" style="stroke:#181818;stroke-width:0.5;" width="120.5605" x="124.5" y="141"/><text fill="#000000" font-family="sans-serif" font-size="14" font-style="italic" lengthAdjust="spacing" textLength="98.5605" x="135.5" y="163.9951">&#171;Component&#187;</text><text fill="#000000" font-family="sans-serif" font-size="14" lengthAdjust="spacing" textLength="74.0537" x="147.7534" y="180.292">Vue.js SPA</text></g><!--entity Leaflet.js--><g class="entity" data-entity="Leaflet.js" data-source-line="5" data-uid="ent0004" id="entity_Leaflet.js"><rect fill="#F1F1F1" height="52.5938" rx="2.5" ry="2.5" style="stroke:#181818;stroke-width:0.5;" width="88.2334" x="124" y="292"/><text fill="#000000" font-family="sans-serif" font-size="14" font-style="italic" lengthAdjust="spacing" textLength="66.2334" x="135" y="314.9951">&#171;Library&#187;</text><text fill="#000000" font-family="sans-serif" font-size="14" lengthAdjust="spacing" textLength="63.5469" x="136.3433" y="331.292">Leaflet.js</text></g><!--entity FastAPI--><g class="entity" data-entity="FastAPI" data-source-line="10" data-uid="ent0007" id="entity_FastAPI"><rect fill="#F1F1F1" height="52.5938" rx="2.5" ry="2.5" style="stroke:#181818;stroke-width:0.5;" width="101.8916" x="387" y="292"/><text fill="#000000" font-family="sans-serif" font-size="14" font-style="italic" lengthAdjust="spacing" textLength="79.8916" x="398" y="314.9951">&#171;REST API&#187;</text><text fill="#000000" font-family="sans-serif" font-size="14" lengthAdjust="spacing" textLength="51.5635" x="412.1641" y="331.292">FastAPI</text></g><!--entity Business Logic--><g class="entity" data-entity="Business Logic" data-source-line="11" data-uid="ent0008" id="entity_Business Logic"><rect fill="#F1F1F1" height="52.5938" rx="2.5" ry="2.5" style="stroke:#181818;stroke-width:0.5;" width="123.0244" x="365.5" y="519"/><text fill="#000000" font-family="sans-serif" font-size="14" font-style="italic" lengthAdjust="spacing" textLength="69.0225" x="392.501" y="541.9951">&#171;Service&#187;</text><text fill="#000000" font-family="sans-serif" font-size="14" lengthAdjust="spacing" textLength="103.0244" x="375.5" y="558.292">Business Logic</text></g><!--entity PostGIS Extension--><g class="entity" data-entity="PostGIS Extension" data-source-line="17" data-uid="ent0012" id="entity_PostGIS Extension"><rect fill="#F1F1F1" height="52.5938" rx="2.5" ry="2.5" style="stroke:#181818;stroke-width:0.5;" width="146.834" x="673.5" y="519"/><text fill="#000000" font-family="sans-serif" font-size="14" font-style="italic" lengthAdjust="spacing" textLength="103.3594" x="695.2373" y="541.9951">&#171;Spatial Data&#187;</text><text fill="#000000" font-family="sans-serif" font-size="14" lengthAdjust="spacing" textLength="126.834" x="683.5" y="558.292">PostGIS Extension</text></g><!--entity User--><g class="entity" data-entity="User" data-source-line="21" data-uid="ent0013" id="entity_User"><rect fill="#F1F1F1" height="36.2969" rx="2.5" ry="2.5" style="stroke:#181818;stroke-width:0.5;" width="51.9102" x="159" y="7"/><text fill="#000000" font-family="sans-serif" font-size="14" lengthAdjust="spacing" textLength="31.9102" x="169" y="29.9951">User</text></g><!--link Vue.js SPA to Leaflet.js--><g class="link" data-entity-1="Vue.js SPA" data-entity-2="Leaflet.js" data-source-line="6" data-uid="lnk5" id="link_Vue.js SPA_Leaflet.js"><path d="M173.63,194.25 C170.13,203.45 166.74,214.01 165,224 C161.03,246.72 161.7617,267.033 163.7517,285.933" fill="none" id="Vue.js SPA-to-Leaflet.js" style="stroke:#181818;stroke-width:1;stroke-dasharray:7,7;"/><polygon fill="#181818" points="164.38,291.9,167.4156,282.5306,163.8564,286.9275,159.4596,283.3683,164.38,291.9" style="stroke:#181818;stroke-width:1;"/><text fill="#000000" font-family="sans-serif" font-size="13" lengthAdjust="spacing" textLength="52.127" x="166" y="237.0669">s&#7917; d&#7909;ng</text></g><!--link FastAPI to Business Logic--><g class="link" data-entity-1="FastAPI" data-entity-2="Business Logic" data-source-line="12" data-uid="lnk9" id="link_FastAPI_Business Logic"><path d="M434.33,345.21 C433.06,355.12 431.76,366.57 431,377 C427.35,427.19 426.8045,480.04 426.8345,512.92" fill="none" id="FastAPI-to-Business Logic" style="stroke:#181818;stroke-width:1;stroke-dasharray:7,7;"/><polygon fill="#181818" points="426.84,518.92,430.8318,509.9164,426.8354,513.92,422.8318,509.9237,426.84,518.92" style="stroke:#181818;stroke-width:1;"/></g><!--link User to Vue.js SPA--><g class="link" data-entity-1="User" data-entity-2="Vue.js SPA" data-source-line="21" data-uid="lnk14" id="link_User_Vue.js SPA"><path d="M185,43.23 C185,67.63 185,106.43 185,134.78" fill="none" id="User-to-Vue.js SPA" style="stroke:#181818;stroke-width:1;"/><polygon fill="#181818" points="185,140.78,189,131.78,185,135.78,181,131.78,185,140.78" style="stroke:#181818;stroke-width:1;"/><text fill="#000000" font-family="sans-serif" font-size="13" lengthAdjust="spacing" textLength="64.9683" x="186" y="86.0669">T&#432;&#417;ng t&#225;c</text></g><!--link Vue.js SPA to FastAPI--><g class="link" data-entity-1="Vue.js SPA" data-entity-2="FastAPI" data-source-line="22" data-uid="lnk15" id="link_Vue.js SPA_FastAPI"><path d="M206.69,194.11 C220.5,209.22 239.42,227.9 259,241 C298.89,267.68 343.9382,286.314 381.1982,299.384" fill="none" id="Vue.js SPA-to-FastAPI" style="stroke:#181818;stroke-width:1;"/><polygon fill="#181818" points="386.86,301.37,379.6914,294.6164,382.1419,299.715,377.0433,302.1655,386.86,301.37" style="stroke:#181818;stroke-width:1;"/><text fill="#000000" font-family="sans-serif" font-size="13" lengthAdjust="spacing" textLength="134.2148" x="260" y="237.0669">HTTP/JSON Requests</text></g><!--link FastAPI to Vue.js SPA--><g class="link" data-entity-1="FastAPI" data-entity-2="Vue.js SPA" data-source-line="25" data-uid="lnk18" id="link_FastAPI_Vue.js SPA"><path d="M433.82,292 C429.02,270.81 419.06,241.41 399,224 C356.53,187.15 298.5656,174.841 251.6256,170.591" fill="none" id="FastAPI-to-Vue.js SPA" style="stroke:#181818;stroke-width:1;"/><polygon fill="#181818" points="245.65,170.05,254.2526,174.8453,250.6296,170.5009,254.974,166.8778,245.65,170.05" style="stroke:#181818;stroke-width:1;"/><text fill="#000000" font-family="sans-serif" font-size="13" lengthAdjust="spacing" textLength="125.2202" x="414" y="237.0669">GeoJSON Response</text></g><!--link FastAPI to PostgreSQL--><g class="link" data-entity-1="FastAPI" data-entity-2="PostgreSQL" data-source-line="23" data-uid="lnk16" id="link_FastAPI_PostgreSQL"><path d="M440.5,345.22 C443.46,361.54 449.92,381.8 464,394 C478.03,406.16 488.76,393 505,402 C542.29,422.675 575.0925,457.5175 598.7913,487.5738 C610.6406,502.6019 620.2141,516.4334 626.9345,526.6992 C627.7746,527.9824 628.5701,529.2099 629.3198,530.3771 C629.5073,530.6689 626.4596,525.902 626.6413,526.1862" fill="none" id="FastAPI-to-PostgreSQL" style="stroke:#181818;stroke-width:1;"/><polygon fill="#181818" points="629.8736,531.2411,628.3951,521.5039,627.18,527.0287,621.6552,525.8136,629.8736,531.2411" style="stroke:#181818;stroke-width:1;"/><text fill="#000000" font-family="sans-serif" font-size="13" lengthAdjust="spacing" textLength="129.1938" x="465" y="390.0669">SQL/Spatial Queries</text></g><!--link PostgreSQL to FastAPI--><g class="link" data-entity-1="PostgreSQL" data-entity-2="FastAPI" data-source-line="24" data-uid="lnk17" id="link_PostgreSQL_FastAPI"><path d="M634.7036,460.5799 C634.3153,458.3172 633.8959,456.043 633.4431,453.7621 C631.6321,444.6385 629.288,435.4077 626.272,426.3752 C620.24,408.31 611.52,391.0375 599,377 C571.05,345.66 530.7139,332.4595 494.9439,325.9795" fill="none" id="PostgreSQL-to-FastAPI" style="stroke:#181818;stroke-width:1;"/><polygon fill="#181818" points="489.04,324.91,497.1828,330.4502,493.9599,325.8013,498.6089,322.5784,489.04,324.91" style="stroke:#181818;stroke-width:1;"/><text fill="#000000" font-family="sans-serif" font-size="13" lengthAdjust="spacing" textLength="73.0044" x="611" y="390.0669">Result Sets</text></g><!--SRC=[PPBFJi904CRlVOe99pq0TqAQW09Y6YsqUY4SbZ8sAsLRTxP6OdWO3XvDl7CquJru4tVx1reyTRlVD_FzPhAquY9XagqXYDT9B50eJsqY18c1OYACqB8I5gnOYD1m9P8sCCLZ0GxRe8IheOo5Gh6yRi2d1J1xJh7rIk2vlJbqkpTbKziseeFi9KAb3KPq-48okScbQbshPTUz7Q3Z_XkMn_sN2Arj1QcN914F2g8uv479rTUE2jQGaUgvOnCx7NW-w7EUsq-92oJAgutkeNpd0URogIvZkZ3NI6wPOcMuEIyOOP6-B7xr1cDIeKHlukIAJZ1Nex47Wm-zHj9pP0o97eb5O1fb85kJDNiYb7DeDktwlZhW7tuEEn62-jq5LatBpASfEd3d-sxxtdjyW2c-fKYAhBEScS-Cngy_xP9cagBag0kgbik0AL8QAV3mV-SwymZZWeFq6o7y0m00]--></g></svg>