<svg xmlns="http://www.w3.org/2000/svg" xmlns:xlink="http://www.w3.org/1999/xlink" contentStyleType="text/css" data-diagram-type="DESCRIPTION" height="692px" preserveAspectRatio="none" style="width:496px;height:692px;background:#FFFFFF;" version="1.1" viewBox="0 0 496 692" width="496px" zoomAndPan="magnify"><defs/><g><!--cluster Client Device--><g class="cluster" data-entity="Client Device" data-source-line="1" data-uid="ent0002" id="cluster_Client Device"><polygon fill="none" points="114,16,124,6,358,6,358,195,348,205,114,205,114,16" style="stroke:#181818;stroke-width:1;"/><line style="stroke:#181818;stroke-width:1;" x1="348" x2="358" y1="16" y2="6"/><line style="stroke:#181818;stroke-width:1;" x1="114" x2="348" y1="16" y2="16"/><line style="stroke:#181818;stroke-width:1;" x1="348" x2="348" y1="16" y2="205"/><text fill="#000000" font-family="sans-serif" font-size="14" font-weight="bold" lengthAdjust="spacing" textLength="103.7354" x="180.1323" y="31.9951">Client Device</text></g><!--cluster Web Browser--><g class="cluster" data-entity="Web Browser" data-source-line="2" data-uid="ent0003" id="cluster_Web Browser"><polygon fill="none" points="146,72,156,62,326,62,326,163,316,173,146,173,146,72" style="stroke:#181818;stroke-width:1;"/><line style="stroke:#181818;stroke-width:1;" x1="316" x2="326" y1="72" y2="62"/><line style="stroke:#181818;stroke-width:1;" x1="146" x2="316" y1="72" y2="72"/><line style="stroke:#181818;stroke-width:1;" x1="316" x2="316" y1="72" y2="173"/><text fill="#000000" font-family="sans-serif" font-size="14" font-weight="bold" lengthAdjust="spacing" textLength="104.6924" x="179.6538" y="87.9951">Web Browser</text></g><!--cluster Web Server--><g class="cluster" data-entity="Web Server" data-source-line="7" data-uid="ent0005" id="cluster_Web Server"><polygon fill="none" points="16,264,26,254,301,254,301,411,291,421,16,421,16,264" style="stroke:#181818;stroke-width:1;"/><line style="stroke:#181818;stroke-width:1;" x1="291" x2="301" y1="264" y2="254"/><line style="stroke:#181818;stroke-width:1;" x1="16" x2="291" y1="264" y2="264"/><line style="stroke:#181818;stroke-width:1;" x1="291" x2="291" y1="264" y2="421"/><text fill="#000000" font-family="sans-serif" font-size="14" font-weight="bold" lengthAdjust="spacing" textLength="91.8408" x="108.5796" y="279.9951">Web Server</text></g><!--cluster Python Environment--><g class="cluster" data-entity="Python Environment" data-source-line="8" data-uid="ent0006" id="cluster_Python Environment"><polygon fill="none" points="40,312,50,302,277,302,277,387,267,397,40,397,40,312" style="stroke:#181818;stroke-width:1;"/><line style="stroke:#181818;stroke-width:1;" x1="267" x2="277" y1="312" y2="302"/><line style="stroke:#181818;stroke-width:1;" x1="40" x2="267" y1="312" y2="312"/><line style="stroke:#181818;stroke-width:1;" x1="267" x2="267" y1="312" y2="397"/><text fill="#000000" font-family="sans-serif" font-size="14" font-weight="bold" lengthAdjust="spacing" textLength="161.1914" x="73.9043" y="327.9951">Python Environment</text></g><!--cluster Database Server--><g class="cluster" data-entity="Database Server" data-source-line="13" data-uid="ent0008" id="cluster_Database Server"><polygon fill="none" points="118,480,128,470,479,470,479,665,469,675,118,675,118,480" style="stroke:#181818;stroke-width:1;"/><line style="stroke:#181818;stroke-width:1;" x1="469" x2="479" y1="480" y2="470"/><line style="stroke:#181818;stroke-width:1;" x1="118" x2="469" y1="480" y2="480"/><line style="stroke:#181818;stroke-width:1;" x1="469" x2="469" y1="480" y2="675"/><text fill="#000000" font-family="sans-serif" font-size="14" font-weight="bold" lengthAdjust="spacing" textLength="131.3867" x="228.8066" y="495.9951">Database Server</text></g><!--cluster PostgreSQL Engine--><g class="cluster" data-entity="PostgreSQL Engine" data-source-line="14" data-uid="ent0009" id="cluster_PostgreSQL Engine"><polygon fill="none" points="150,536,160,526,447,526,447,633,437,643,150,643,150,536" style="stroke:#181818;stroke-width:1;"/><line style="stroke:#181818;stroke-width:1;" x1="437" x2="447" y1="536" y2="526"/><line style="stroke:#181818;stroke-width:1;" x1="150" x2="437" y1="536" y2="536"/><line style="stroke:#181818;stroke-width:1;" x1="437" x2="437" y1="536" y2="643"/><text fill="#000000" font-family="sans-serif" font-size="14" font-weight="bold" lengthAdjust="spacing" textLength="150.917" x="219.0415" y="551.9951">PostgreSQL Engine</text></g><!--entity Vue.js App--><g class="entity" data-entity="Vue.js App" data-source-line="3" data-uid="ent0004" id="entity_Vue.js App"><rect fill="#F1F1F1" height="39.2969" rx="2.5" ry="2.5" style="stroke:#181818;stroke-width:0.5;" width="104.498" x="195" y="110"/><polygon fill="#F1F1F1" points="282.498,115,282.498,129,294.498,129,294.498,121,288.498,115,282.498,115" style="stroke:#181818;stroke-width:0.5;"/><line style="stroke:#181818;stroke-width:0.5;" x1="288.498" x2="288.498" y1="115" y2="121"/><line style="stroke:#181818;stroke-width:0.5;" x1="294.498" x2="288.498" y1="121" y2="121"/><text fill="#000000" font-family="sans-serif" font-size="14" lengthAdjust="spacing" textLength="74.498" x="205" y="135.9951">Vue.js App</text></g><!--entity FastAPI Application--><g class="entity" data-entity="FastAPI Application" data-source-line="9" data-uid="ent0007" id="entity_FastAPI Application"><rect fill="#F1F1F1" height="39.2969" rx="2.5" ry="2.5" style="stroke:#181818;stroke-width:0.5;" width="164.2373" x="76" y="342"/><polygon fill="#F1F1F1" points="223.2373,347,223.2373,361,235.2373,361,235.2373,353,229.2373,347,223.2373,347" style="stroke:#181818;stroke-width:0.5;"/><line style="stroke:#181818;stroke-width:0.5;" x1="229.2373" x2="229.2373" y1="347" y2="353"/><line style="stroke:#181818;stroke-width:0.5;" x1="235.2373" x2="229.2373" y1="353" y2="353"/><text fill="#000000" font-family="sans-serif" font-size="14" lengthAdjust="spacing" textLength="134.2373" x="86" y="367.9951">FastAPI Application</text></g><!--entity NongSan_DB--><g class="entity" data-entity="NongSan_DB" data-source-line="15" data-uid="ent0010" id="entity_NongSan_DB"><path d="M312.5,584 C312.5,574 367.7607,574 367.7607,574 C367.7607,574 423.0215,574 423.0215,584 L423.0215,609.2969 C423.0215,619.2969 367.7607,619.2969 367.7607,619.2969 C367.7607,619.2969 312.5,619.2969 312.5,609.2969 L312.5,584" fill="#F1F1F1" style="stroke:#181818;stroke-width:0.5;"/><path d="M312.5,584 C312.5,594 367.7607,594 367.7607,594 C367.7607,594 423.0215,594 423.0215,584" fill="none" style="stroke:#181818;stroke-width:0.5;"/><text fill="#000000" font-family="sans-serif" font-size="14" lengthAdjust="spacing" textLength="90.5215" x="322.5" y="610.9951">NongSan_DB</text></g><!--entity PostGIS--><g class="entity" data-entity="PostGIS" data-source-line="16" data-uid="ent0011" id="entity_PostGIS"><rect fill="#F1F1F1" height="39.2969" rx="2.5" ry="2.5" style="stroke:#181818;stroke-width:0.5;" width="83.6553" x="193" y="577"/><polygon fill="#F1F1F1" points="259.6553,582,259.6553,596,271.6553,596,271.6553,588,265.6553,582,259.6553,582" style="stroke:#181818;stroke-width:0.5;"/><line style="stroke:#181818;stroke-width:0.5;" x1="265.6553" x2="265.6553" y1="582" y2="588"/><line style="stroke:#181818;stroke-width:0.5;" x1="271.6553" x2="265.6553" y1="588" y2="588"/><text fill="#000000" font-family="sans-serif" font-size="14" lengthAdjust="spacing" textLength="53.6553" x="203" y="602.9951">PostGIS</text></g><!--link Web Browser to FastAPI Application--><g class="link" data-entity-1="Web Browser" data-entity-2="FastAPI Application" data-source-line="20" data-uid="lnk12" id="link_Web Browser_FastAPI Application"><path d="M158,173.0848 C158,173.6646 158,174.2485 158,174.8365 C158,176.0124 158,177.2045 158,178.4117 C158,180.8261 158,183.3012 158,185.8295 C158,195.9427 158,206.9075 158,218.2475 C158,263.6075 158,314.97 158,341.84" fill="none" id="Web Browser-FastAPI Application" style="stroke:#181818;stroke-width:1;"/><text fill="#000000" font-family="sans-serif" font-size="13" lengthAdjust="spacing" textLength="41.7485" x="159" y="234.0669">HTTPS</text></g><!--link FastAPI Application to PostgreSQL Engine--><g class="link" data-entity-1="FastAPI Application" data-entity-2="PostgreSQL Engine" data-source-line="21" data-uid="lnk13" id="link_FastAPI Application_PostgreSQL Engine"><path d="M158,381.17 C158,408.385 158,460.7325 158,506.8787 C158,512.647 158,518.3184 158,523.8317 C158,524.5209 158,525.2076 158,525.8917" fill="none" id="FastAPI Application-PostgreSQL Engine" style="stroke:#181818;stroke-width:1;"/><text fill="#000000" font-family="sans-serif" font-size="13" lengthAdjust="spacing" textLength="118.6377" x="159" y="450.0669">TCP/IP (Port 5432)</text></g><!--SRC=[ROz1Yy8m48Nl-HL3Jkj1XLKltjIwQq4aag97YNMiMTo996D5nF- -xKeLjTTvVEzxGsw384TxYyGGOMvJb70H0FGVB74DG-zE0Vtj360yswr96UJYYAsV08F3GHR9LLo5U50QVLv1jwiwyyuHZ2cttj5l8Nol_3A11oekE_SsDMmTlNH7XitQ1AmJkC2PHpsV5fBC4bRzcugHCqUPDhIAXlB5NCBViRxRdbzlDkktGHycIQAqg4zBh6PL7vAHQiSAFfJp3BrkvxFn1m00]--></g></svg>