<svg xmlns="http://www.w3.org/2000/svg" xmlns:xlink="http://www.w3.org/1999/xlink" contentStyleType="text/css" data-diagram-type="SEQUENCE" height="577px" preserveAspectRatio="none" style="width:979px;height:577px;background:#FFFFFF;" version="1.1" viewBox="0 0 979 577" width="979px" zoomAndPan="magnify"><defs/><g><rect fill="none" height="235.8672" style="stroke:#000000;stroke-width:1.5;" width="962.3198" x="10" y="243.9609"/><g><title>Ng..i d.ng</title><rect fill="#000000" fill-opacity="0.00000" height="415.5313" width="8" x="59.3286" y="81.2969"/><line style="stroke:#181818;stroke-width:0.5;stroke-dasharray:5,5;" x1="63" x2="63" y1="81.2969" y2="496.8281"/></g><g><title>Giao di.n .UI.</title><rect fill="#000000" fill-opacity="0.00000" height="415.5313" width="8" x="269.1255" y="81.2969"/><line style="stroke:#181818;stroke-width:0.5;stroke-dasharray:5,5;" x1="272.9526" x2="272.9526" y1="81.2969" y2="496.8281"/></g><g><title>B. .i.u khi.n .Controller.</title><rect fill="#000000" fill-opacity="0.00000" height="415.5313" width="8" x="497.7749" y="81.2969"/><line style="stroke:#181818;stroke-width:0.5;stroke-dasharray:5,5;" x1="501.6567" x2="501.6567" y1="81.2969" y2="496.8281"/></g><g><title>V.ng Tr.ng .Model.</title><rect fill="#000000" fill-opacity="0.00000" height="415.5313" width="8" x="699.4468" y="81.2969"/><line style="stroke:#181818;stroke-width:0.5;stroke-dasharray:5,5;" x1="703.0962" x2="703.0962" y1="81.2969" y2="496.8281"/></g><g><title>PostgreSQL</title><rect fill="#000000" fill-opacity="0.00000" height="415.5313" width="8" x="914.9434" y="81.2969"/><line style="stroke:#181818;stroke-width:0.5;stroke-dasharray:5,5;" x1="918.5669" x2="918.5669" y1="81.2969" y2="496.8281"/></g><g class="participant participant-head" data-participant="U"><text fill="#000000" font-family="sans-serif" font-size="14" lengthAdjust="spacing" textLength="80.6572" x="20" y="77.9951">Ng&#432;&#7901;i d&#249;ng</text><ellipse cx="63.3286" cy="13.5" fill="#E2E2F0" rx="8" ry="8" style="stroke:#181818;stroke-width:0.5;"/><path d="M63.3286,21.5 L63.3286,48.5 M50.3286,29.5 L76.3286,29.5 M63.3286,48.5 L50.3286,63.5 M63.3286,48.5 L76.3286,63.5" fill="none" style="stroke:#181818;stroke-width:0.5;"/></g><g class="participant participant-tail" data-participant="U"><text fill="#000000" font-family="sans-serif" font-size="14" lengthAdjust="spacing" textLength="80.6572" x="20" y="508.8232">Ng&#432;&#7901;i d&#249;ng</text><ellipse cx="63.3286" cy="520.625" fill="#E2E2F0" rx="8" ry="8" style="stroke:#181818;stroke-width:0.5;"/><path d="M63.3286,528.625 L63.3286,555.625 M50.3286,536.625 L76.3286,536.625 M63.3286,555.625 L50.3286,570.625 M63.3286,555.625 L76.3286,570.625" fill="none" style="stroke:#181818;stroke-width:0.5;"/></g><g class="participant participant-head" data-participant="UI"><text fill="#000000" font-family="sans-serif" font-size="14" lengthAdjust="spacing" textLength="96.3457" x="221.9526" y="77.9951">Giao di&#7879;n (UI)</text><path d="M252.6255,37 L252.6255,61 M252.6255,49 L269.6255,49" fill="none" style="stroke:#181818;stroke-width:0.5;"/><ellipse cx="281.6255" cy="49" fill="#E2E2F0" rx="12" ry="12" style="stroke:#181818;stroke-width:0.5;"/></g><g class="participant participant-tail" data-participant="UI"><text fill="#000000" font-family="sans-serif" font-size="14" lengthAdjust="spacing" textLength="96.3457" x="221.9526" y="508.8232">Giao di&#7879;n (UI)</text><path d="M252.6255,516.125 L252.6255,540.125 M252.6255,528.125 L269.6255,528.125" fill="none" style="stroke:#181818;stroke-width:0.5;"/><ellipse cx="281.6255" cy="528.125" fill="#E2E2F0" rx="12" ry="12" style="stroke:#181818;stroke-width:0.5;"/></g><g class="participant participant-head" data-participant="C"><text fill="#000000" font-family="sans-serif" font-size="14" lengthAdjust="spacing" textLength="180.2363" x="408.6567" y="77.9951">B&#7897; &#273;i&#7873;u khi&#7875;n (Controller)</text><ellipse cx="501.7749" cy="49" fill="#E2E2F0" rx="12" ry="12" style="stroke:#181818;stroke-width:0.5;"/><polygon fill="#181818" points="497.7749,37,503.7749,32,501.7749,37,503.7749,42,497.7749,37" style="stroke:#181818;stroke-width:1;"/></g><g class="participant participant-tail" data-participant="C"><text fill="#000000" font-family="sans-serif" font-size="14" lengthAdjust="spacing" textLength="180.2363" x="408.6567" y="508.8232">B&#7897; &#273;i&#7873;u khi&#7875;n (Controller)</text><ellipse cx="501.7749" cy="528.125" fill="#E2E2F0" rx="12" ry="12" style="stroke:#181818;stroke-width:0.5;"/><polygon fill="#181818" points="497.7749,516.125,503.7749,511.125,501.7749,516.125,503.7749,521.125,497.7749,516.125" style="stroke:#181818;stroke-width:1;"/></g><g class="participant participant-head" data-participant="M"><text fill="#000000" font-family="sans-serif" font-size="14" lengthAdjust="spacing" textLength="138.7012" x="631.0962" y="77.9951">V&#249;ng Tr&#7891;ng (Model)</text><ellipse cx="703.4468" cy="49" fill="#E2E2F0" rx="12" ry="12" style="stroke:#181818;stroke-width:0.5;"/><line style="stroke:#181818;stroke-width:0.5;" x1="691.4468" x2="715.4468" y1="63" y2="63"/></g><g class="participant participant-tail" data-participant="M"><text fill="#000000" font-family="sans-serif" font-size="14" lengthAdjust="spacing" textLength="138.7012" x="631.0962" y="508.8232">V&#249;ng Tr&#7891;ng (Model)</text><ellipse cx="703.4468" cy="528.125" fill="#E2E2F0" rx="12" ry="12" style="stroke:#181818;stroke-width:0.5;"/><line style="stroke:#181818;stroke-width:0.5;" x1="691.4468" x2="715.4468" y1="542.125" y2="542.125"/></g><g class="participant participant-head" data-participant="DB"><text fill="#000000" font-family="sans-serif" font-size="14" lengthAdjust="spacing" textLength="80.7529" x="875.5669" y="77.9951">PostgreSQL</text><path d="M900.9434,29 C900.9434,19 918.9434,19 918.9434,19 C918.9434,19 936.9434,19 936.9434,29 L936.9434,55 C936.9434,65 918.9434,65 918.9434,65 C918.9434,65 900.9434,65 900.9434,55 L900.9434,29" fill="#E2E2F0" style="stroke:#181818;stroke-width:0.5;"/><path d="M900.9434,29 C900.9434,39 918.9434,39 918.9434,39 C918.9434,39 936.9434,39 936.9434,29" fill="none" style="stroke:#181818;stroke-width:0.5;"/></g><g class="participant participant-tail" data-participant="DB"><text fill="#000000" font-family="sans-serif" font-size="14" lengthAdjust="spacing" textLength="80.7529" x="875.5669" y="508.8232">PostgreSQL</text><path d="M900.9434,522.125 C900.9434,512.125 918.9434,512.125 918.9434,512.125 C918.9434,512.125 936.9434,512.125 936.9434,522.125 L936.9434,548.125 C936.9434,558.125 918.9434,558.125 918.9434,558.125 C918.9434,558.125 900.9434,558.125 900.9434,548.125 L900.9434,522.125" fill="#E2E2F0" style="stroke:#181818;stroke-width:0.5;"/><path d="M900.9434,522.125 C900.9434,532.125 918.9434,532.125 918.9434,532.125 C918.9434,532.125 936.9434,532.125 936.9434,522.125" fill="none" style="stroke:#181818;stroke-width:0.5;"/></g><g class="message" data-participant-1="U" data-participant-2="UI"><polygon fill="#181818" points="261.1255,108.4297,271.1255,112.4297,261.1255,116.4297,265.1255,112.4297" style="stroke:#181818;stroke-width:1;"/><line style="stroke:#181818;stroke-width:1;" x1="63.3286" x2="267.1255" y1="112.4297" y2="112.4297"/><text fill="#000000" font-family="sans-serif" font-size="13" font-weight="bold" lengthAdjust="spacing" textLength="9.0454" x="70.3286" y="107.3638">1</text><text fill="#000000" font-family="sans-serif" font-size="13" lengthAdjust="spacing" textLength="172.7515" x="83.374" y="107.3638">Nh&#7853;p th&#244;ng tin v&#249;ng tr&#7891;ng</text></g><g class="message" data-participant-1="U" data-participant-2="UI"><polygon fill="#181818" points="261.1255,137.5625,271.1255,141.5625,261.1255,145.5625,265.1255,141.5625" style="stroke:#181818;stroke-width:1;"/><line style="stroke:#181818;stroke-width:1;" x1="63.3286" x2="267.1255" y1="141.5625" y2="141.5625"/><text fill="#000000" font-family="sans-serif" font-size="13" font-weight="bold" lengthAdjust="spacing" textLength="9.0454" x="70.3286" y="136.4966">2</text><text fill="#000000" font-family="sans-serif" font-size="13" lengthAdjust="spacing" textLength="99.6899" x="83.374" y="136.4966">Nh&#7845;n n&#250;t "L&#432;u"</text></g><g class="message" data-participant-1="UI" data-participant-2="C"><polygon fill="#181818" points="489.7749,166.6953,499.7749,170.6953,489.7749,174.6953,493.7749,170.6953" style="stroke:#181818;stroke-width:1;"/><line style="stroke:#181818;stroke-width:1;" x1="273.1255" x2="495.7749" y1="170.6953" y2="170.6953"/><text fill="#000000" font-family="sans-serif" font-size="13" font-weight="bold" lengthAdjust="spacing" textLength="9.0454" x="280.1255" y="165.6294">3</text><text fill="#000000" font-family="sans-serif" font-size="13" lengthAdjust="spacing" textLength="121.0371" x="293.1709" y="165.6294">requestSave(data)</text></g><g class="message" data-participant-1="C" data-participant-2="DB"><polygon fill="#181818" points="906.9434,195.8281,916.9434,199.8281,906.9434,203.8281,910.9434,199.8281" style="stroke:#181818;stroke-width:1;"/><line style="stroke:#181818;stroke-width:1;" x1="501.7749" x2="912.9434" y1="199.8281" y2="199.8281"/><text fill="#000000" font-family="sans-serif" font-size="13" font-weight="bold" lengthAdjust="spacing" textLength="9.0454" x="508.7749" y="194.7622">4</text><text fill="#000000" font-family="sans-serif" font-size="13" lengthAdjust="spacing" textLength="380.123" x="521.8203" y="194.7622">SELECT ma_vung FROM vung_trong WHERE ma_vung = ...</text></g><g class="message" data-participant-1="DB" data-participant-2="C"><polygon fill="#181818" points="512.7749,224.9609,502.7749,228.9609,512.7749,232.9609,508.7749,228.9609" style="stroke:#181818;stroke-width:1;"/><line style="stroke:#181818;stroke-width:1;stroke-dasharray:2,2;" x1="506.7749" x2="917.9434" y1="228.9609" y2="228.9609"/><text fill="#000000" font-family="sans-serif" font-size="13" font-weight="bold" lengthAdjust="spacing" textLength="9.0454" x="518.7749" y="223.895">5</text><text fill="#000000" font-family="sans-serif" font-size="13" lengthAdjust="spacing" textLength="60.3535" x="531.8203" y="223.895">[K&#7871;t qu&#7843;]</text></g><path d="M10,243.9609 L74.4429,243.9609 L74.4429,251.0938 L64.4429,261.0938 L10,261.0938 L10,243.9609" fill="#EEEEEE" style="stroke:#000000;stroke-width:1.5;"/><rect fill="none" height="235.8672" style="stroke:#000000;stroke-width:1.5;" width="962.3198" x="10" y="243.9609"/><text fill="#000000" font-family="sans-serif" font-size="13" font-weight="bold" lengthAdjust="spacing" textLength="19.4429" x="25" y="257.0278">alt</text><text fill="#000000" font-family="sans-serif" font-size="11" font-weight="bold" lengthAdjust="spacing" textLength="196.6626" x="89.4429" y="256.1714">[M&#227; v&#249;ng h&#7907;p l&#7879; (Kh&#244;ng tr&#249;ng)]</text><g class="message" data-participant-1="C" data-participant-2="M"><polygon fill="#181818" points="691.4468,278.2266,701.4468,282.2266,691.4468,286.2266,695.4468,282.2266" style="stroke:#181818;stroke-width:1;"/><line style="stroke:#181818;stroke-width:1;" x1="501.7749" x2="697.4468" y1="282.2266" y2="282.2266"/><text fill="#000000" font-family="sans-serif" font-size="13" font-weight="bold" lengthAdjust="spacing" textLength="9.0454" x="508.7749" y="277.1606">6</text><text fill="#000000" font-family="sans-serif" font-size="13" lengthAdjust="spacing" textLength="164.6265" x="521.8203" y="277.1606">createNewInstance(data)</text></g><g class="message" data-participant-1="C" data-participant-2="DB"><polygon fill="#181818" points="906.9434,307.3594,916.9434,311.3594,906.9434,315.3594,910.9434,311.3594" style="stroke:#181818;stroke-width:1;"/><line style="stroke:#181818;stroke-width:1;" x1="501.7749" x2="912.9434" y1="311.3594" y2="311.3594"/><text fill="#000000" font-family="sans-serif" font-size="13" font-weight="bold" lengthAdjust="spacing" textLength="9.0454" x="508.7749" y="306.2935">7</text><text fill="#000000" font-family="sans-serif" font-size="13" lengthAdjust="spacing" textLength="187.478" x="521.8203" y="306.2935">INSERT INTO vung_trong (...)</text></g><g class="message" data-participant-1="DB" data-participant-2="C"><polygon fill="#181818" points="512.7749,336.4922,502.7749,340.4922,512.7749,344.4922,508.7749,340.4922" style="stroke:#181818;stroke-width:1;"/><line style="stroke:#181818;stroke-width:1;stroke-dasharray:2,2;" x1="506.7749" x2="917.9434" y1="340.4922" y2="340.4922"/><text fill="#000000" font-family="sans-serif" font-size="13" font-weight="bold" lengthAdjust="spacing" textLength="9.0454" x="518.7749" y="335.4263">8</text><text fill="#000000" font-family="sans-serif" font-size="13" lengthAdjust="spacing" textLength="52.3301" x="531.8203" y="335.4263">Success</text></g><g class="message" data-participant-1="C" data-participant-2="UI"><polygon fill="#181818" points="284.1255,365.625,274.1255,369.625,284.1255,373.625,280.1255,369.625" style="stroke:#181818;stroke-width:1;"/><line style="stroke:#181818;stroke-width:1;stroke-dasharray:2,2;" x1="278.1255" x2="500.7749" y1="369.625" y2="369.625"/><text fill="#000000" font-family="sans-serif" font-size="13" font-weight="bold" lengthAdjust="spacing" textLength="9.0454" x="290.1255" y="364.5591">9</text><text fill="#000000" font-family="sans-serif" font-size="13" lengthAdjust="spacing" textLength="143.146" x="303.1709" y="364.5591">Hi&#7875;n th&#7883; "Th&#224;nh c&#244;ng"</text></g><g class="message" data-participant-1="UI" data-participant-2="U"><polygon fill="#181818" points="74.3286,394.7578,64.3286,398.7578,74.3286,402.7578,70.3286,398.7578" style="stroke:#181818;stroke-width:1;"/><line style="stroke:#181818;stroke-width:1;stroke-dasharray:2,2;" x1="68.3286" x2="272.1255" y1="398.7578" y2="398.7578"/><text fill="#000000" font-family="sans-serif" font-size="13" font-weight="bold" lengthAdjust="spacing" textLength="18.0908" x="80.3286" y="393.6919">10</text><text fill="#000000" font-family="sans-serif" font-size="13" lengthAdjust="spacing" textLength="146.5674" x="102.4194" y="393.6919">Th&#244;ng b&#225;o th&#224;nh c&#244;ng</text></g><line style="stroke:#000000;stroke-width:1;stroke-dasharray:2,2;" x1="10" x2="972.3198" y1="407.7578" y2="407.7578"/><text fill="#000000" font-family="sans-serif" font-size="11" font-weight="bold" lengthAdjust="spacing" textLength="116.4829" x="15" y="417.9683">[M&#227; v&#249;ng b&#7883; tr&#249;ng]</text><g class="message" data-participant-1="C" data-participant-2="UI"><polygon fill="#181818" points="284.1255,438.6953,274.1255,442.6953,284.1255,446.6953,280.1255,442.6953" style="stroke:#181818;stroke-width:1;"/><line style="stroke:#181818;stroke-width:1;stroke-dasharray:2,2;" x1="278.1255" x2="500.7749" y1="442.6953" y2="442.6953"/><text fill="#000000" font-family="sans-serif" font-size="13" font-weight="bold" lengthAdjust="spacing" textLength="18.0908" x="290.1255" y="437.6294">11</text><text fill="#000000" font-family="sans-serif" font-size="13" lengthAdjust="spacing" textLength="182.5586" x="312.2163" y="437.6294">B&#225;o l&#7895;i "M&#227; v&#249;ng &#273;&#227; t&#7891;n t&#7841;i"</text></g><g class="message" data-participant-1="UI" data-participant-2="U"><polygon fill="#181818" points="74.3286,467.8281,64.3286,471.8281,74.3286,475.8281,70.3286,471.8281" style="stroke:#181818;stroke-width:1;"/><line style="stroke:#181818;stroke-width:1;stroke-dasharray:2,2;" x1="68.3286" x2="272.1255" y1="471.8281" y2="471.8281"/><text fill="#000000" font-family="sans-serif" font-size="13" font-weight="bold" lengthAdjust="spacing" textLength="18.0908" x="80.3286" y="466.7622">12</text><text fill="#000000" font-family="sans-serif" font-size="13" lengthAdjust="spacing" textLength="107.8149" x="102.4194" y="466.7622">Y&#234;u c&#7847;u nh&#7853;p l&#7841;i</text></g><!--SRC=[NPAnRjH048RxVOhHLhuYzm2MeB3F42ld2vnz88HGjBPNPmjddQnt3r4Y2WggY2AYG28w8IGaf1Gqs0M5exo7tuJPsyiTn8LthVdcdtzcpBIgXJvDkIGiKxK4EblUNW_TbnBo_hTOKc0DB4XQQv4p-HReuvBLa9T3zq60imX75WX9LWibwmgeDtIVuUO2YNSQNXTulaVIj-6AIvlX4ovKgL3mcIa3YHowJtWwKPtpoZ8HoPbYAMiuq2TrevQInq-dcz348sG11m-niWkpOcX_de4g-b-ee4e1guscifh_Wzy4YBvLGAUtrvgIHMY2lWkIdslUg9Yjk6FAZeXl8XFFXJYO1du2f-nafL7sqVmu0dCxmOxm-_bXC0zsqGSm7e_9n8C3g_loQ6Z_A3ZNGxj-HGYh54JzUkkm6Bhr6LGuJ72EjlQbYOm8uBDn4BcGISuKd_4teMWK4zcTmnrZN8QpE9WdU2J7_xfpq8ubzvvYdMMyQUxojzCvjAjIQEeZqAJelue2CcEARaWpAeEwa5YhQNzLcwdlEC8htDM-lTGesORkrV9CAlPzMGBTypSNU5LcQVXkhyhxTL_qFpHaG_jTWx0xhmo6lrB-5m00]--></g></svg>