<svg xmlns="http://www.w3.org/2000/svg" xmlns:xlink="http://www.w3.org/1999/xlink" contentStyleType="text/css" data-diagram-type="SEQUENCE" height="502px" preserveAspectRatio="none" style="width:923px;height:502px;background:#FFFFFF;" version="1.1" viewBox="0 0 923 502" width="923px" zoomAndPan="magnify"><defs/><g><g><title>Nh. n.ng</title><rect fill="#000000" fill-opacity="0.00000" height="340.4609" width="8" x="37.7866" y="81.2969"/><line style="stroke:#181818;stroke-width:0.5;stroke-dasharray:5,5;" x1="41" x2="41" y1="81.2969" y2="421.7578"/></g><g><title>Giao di.n Nh.t k.</title><rect fill="#000000" fill-opacity="0.00000" height="340.4609" width="8" x="271.3047" y="81.2969"/><line style="stroke:#181818;stroke-width:0.5;stroke-dasharray:5,5;" x1="274.6533" x2="274.6533" y1="81.2969" y2="421.7578"/></g><g><title>Nh.t k. Controller</title><rect fill="#000000" fill-opacity="0.00000" height="340.4609" width="8" x="546.7681" y="81.2969"/><line style="stroke:#181818;stroke-width:0.5;stroke-dasharray:5,5;" x1="549.8281" x2="549.8281" y1="81.2969" y2="421.7578"/></g><g><title>PostgreSQL</title><rect fill="#000000" fill-opacity="0.00000" height="340.4609" width="8" x="874.8789" y="81.2969"/><line style="stroke:#181818;stroke-width:0.5;stroke-dasharray:5,5;" x1="878.5024" x2="878.5024" y1="81.2969" y2="421.7578"/></g><g class="participant participant-head" data-participant="N"><text fill="#000000" font-family="sans-serif" font-size="14" lengthAdjust="spacing" textLength="67.5732" x="5" y="77.9951">Nh&#224; n&#244;ng</text><ellipse cx="41.7866" cy="13.5" fill="#E2E2F0" rx="8" ry="8" style="stroke:#181818;stroke-width:0.5;"/><path d="M41.7866,21.5 L41.7866,48.5 M28.7866,29.5 L54.7866,29.5 M41.7866,48.5 L28.7866,63.5 M41.7866,48.5 L54.7866,63.5" fill="none" style="stroke:#181818;stroke-width:0.5;"/></g><g class="participant participant-tail" data-participant="N"><text fill="#000000" font-family="sans-serif" font-size="14" lengthAdjust="spacing" textLength="67.5732" x="5" y="433.7529">Nh&#224; n&#244;ng</text><ellipse cx="41.7866" cy="445.5547" fill="#E2E2F0" rx="8" ry="8" style="stroke:#181818;stroke-width:0.5;"/><path d="M41.7866,453.5547 L41.7866,480.5547 M28.7866,461.5547 L54.7866,461.5547 M41.7866,480.5547 L28.7866,495.5547 M41.7866,480.5547 L54.7866,495.5547" fill="none" style="stroke:#181818;stroke-width:0.5;"/></g><g class="participant participant-head" data-participant="UI"><text fill="#000000" font-family="sans-serif" font-size="14" lengthAdjust="spacing" textLength="125.3027" x="209.6533" y="77.9951">Giao di&#7879;n Nh&#7853;t k&#253;</text><path d="M254.8047,37 L254.8047,61 M254.8047,49 L271.8047,49" fill="none" style="stroke:#181818;stroke-width:0.5;"/><ellipse cx="283.8047" cy="49" fill="#E2E2F0" rx="12" ry="12" style="stroke:#181818;stroke-width:0.5;"/></g><g class="participant participant-tail" data-participant="UI"><text fill="#000000" font-family="sans-serif" font-size="14" lengthAdjust="spacing" textLength="125.3027" x="209.6533" y="433.7529">Giao di&#7879;n Nh&#7853;t k&#253;</text><path d="M254.8047,441.0547 L254.8047,465.0547 M254.8047,453.0547 L271.8047,453.0547" fill="none" style="stroke:#181818;stroke-width:0.5;"/><ellipse cx="283.8047" cy="453.0547" fill="#E2E2F0" rx="12" ry="12" style="stroke:#181818;stroke-width:0.5;"/></g><g class="participant participant-head" data-participant="C"><text fill="#000000" font-family="sans-serif" font-size="14" lengthAdjust="spacing" textLength="127.8799" x="483.8281" y="77.9951">Nh&#7853;t k&#253; Controller</text><ellipse cx="550.7681" cy="49" fill="#E2E2F0" rx="12" ry="12" style="stroke:#181818;stroke-width:0.5;"/><polygon fill="#181818" points="546.7681,37,552.7681,32,550.7681,37,552.7681,42,546.7681,37" style="stroke:#181818;stroke-width:1;"/></g><g class="participant participant-tail" data-participant="C"><text fill="#000000" font-family="sans-serif" font-size="14" lengthAdjust="spacing" textLength="127.8799" x="483.8281" y="433.7529">Nh&#7853;t k&#253; Controller</text><ellipse cx="550.7681" cy="453.0547" fill="#E2E2F0" rx="12" ry="12" style="stroke:#181818;stroke-width:0.5;"/><polygon fill="#181818" points="546.7681,441.0547,552.7681,436.0547,550.7681,441.0547,552.7681,446.0547,546.7681,441.0547" style="stroke:#181818;stroke-width:1;"/></g><g class="participant participant-head" data-participant="DB"><text fill="#000000" font-family="sans-serif" font-size="14" lengthAdjust="spacing" textLength="80.7529" x="835.5024" y="77.9951">PostgreSQL</text><path d="M860.8789,29 C860.8789,19 878.8789,19 878.8789,19 C878.8789,19 896.8789,19 896.8789,29 L896.8789,55 C896.8789,65 878.8789,65 878.8789,65 C878.8789,65 860.8789,65 860.8789,55 L860.8789,29" fill="#E2E2F0" style="stroke:#181818;stroke-width:0.5;"/><path d="M860.8789,29 C860.8789,39 878.8789,39 878.8789,39 C878.8789,39 896.8789,39 896.8789,29" fill="none" style="stroke:#181818;stroke-width:0.5;"/></g><g class="participant participant-tail" data-participant="DB"><text fill="#000000" font-family="sans-serif" font-size="14" lengthAdjust="spacing" textLength="80.7529" x="835.5024" y="433.7529">PostgreSQL</text><path d="M860.8789,447.0547 C860.8789,437.0547 878.8789,437.0547 878.8789,437.0547 C878.8789,437.0547 896.8789,437.0547 896.8789,447.0547 L896.8789,473.0547 C896.8789,483.0547 878.8789,483.0547 878.8789,483.0547 C878.8789,483.0547 860.8789,483.0547 860.8789,473.0547 L860.8789,447.0547" fill="#E2E2F0" style="stroke:#181818;stroke-width:0.5;"/><path d="M860.8789,447.0547 C860.8789,457.0547 878.8789,457.0547 878.8789,457.0547 C878.8789,457.0547 896.8789,457.0547 896.8789,447.0547" fill="none" style="stroke:#181818;stroke-width:0.5;"/></g><g class="message" data-participant-1="N" data-participant-2="UI"><polygon fill="#181818" points="263.3047,108.4297,273.3047,112.4297,263.3047,116.4297,267.3047,112.4297" style="stroke:#181818;stroke-width:1;"/><line style="stroke:#181818;stroke-width:1;" x1="41.7866" x2="269.3047" y1="112.4297" y2="112.4297"/><text fill="#000000" font-family="sans-serif" font-size="13" font-weight="bold" lengthAdjust="spacing" textLength="9.0454" x="48.7866" y="107.3638">1</text><text fill="#000000" font-family="sans-serif" font-size="13" lengthAdjust="spacing" textLength="196.2886" x="61.832" y="107.3638">Ch&#7885;n ch&#7913;c n&#259;ng "Ghi nh&#7853;t k&#253;"</text></g><g class="message" data-participant-1="UI" data-participant-2="C"><polygon fill="#181818" points="538.7681,137.5625,548.7681,141.5625,538.7681,145.5625,542.7681,141.5625" style="stroke:#181818;stroke-width:1;"/><line style="stroke:#181818;stroke-width:1;" x1="275.3047" x2="544.7681" y1="141.5625" y2="141.5625"/><text fill="#000000" font-family="sans-serif" font-size="13" font-weight="bold" lengthAdjust="spacing" textLength="9.0454" x="282.3047" y="136.4966">2</text><text fill="#000000" font-family="sans-serif" font-size="13" lengthAdjust="spacing" textLength="190.4487" x="295.3501" y="136.4966">getVatTuList(loai_hoat_dong)</text></g><g class="message" data-participant-1="C" data-participant-2="DB"><polygon fill="#181818" points="866.8789,166.6953,876.8789,170.6953,866.8789,174.6953,870.8789,170.6953" style="stroke:#181818;stroke-width:1;"/><line style="stroke:#181818;stroke-width:1;" x1="550.7681" x2="872.8789" y1="170.6953" y2="170.6953"/><text fill="#000000" font-family="sans-serif" font-size="13" font-weight="bold" lengthAdjust="spacing" textLength="9.0454" x="557.7681" y="165.6294">3</text><text fill="#000000" font-family="sans-serif" font-size="13" lengthAdjust="spacing" textLength="291.0654" x="570.8135" y="165.6294">SELECT * FROM phan_bon (ho&#7863;c thuoc_bvtv)</text></g><g class="message" data-participant-1="DB" data-participant-2="C"><polygon fill="#181818" points="561.7681,195.8281,551.7681,199.8281,561.7681,203.8281,557.7681,199.8281" style="stroke:#181818;stroke-width:1;"/><line style="stroke:#181818;stroke-width:1;stroke-dasharray:2,2;" x1="555.7681" x2="877.8789" y1="199.8281" y2="199.8281"/><text fill="#000000" font-family="sans-serif" font-size="13" font-weight="bold" lengthAdjust="spacing" textLength="9.0454" x="567.7681" y="194.7622">4</text><text fill="#000000" font-family="sans-serif" font-size="13" lengthAdjust="spacing" textLength="65.0825" x="580.8135" y="194.7622">List v&#7853;t t&#432;</text></g><g class="message" data-participant-1="C" data-participant-2="UI"><polygon fill="#181818" points="286.3047,224.9609,276.3047,228.9609,286.3047,232.9609,282.3047,228.9609" style="stroke:#181818;stroke-width:1;"/><line style="stroke:#181818;stroke-width:1;stroke-dasharray:2,2;" x1="280.3047" x2="549.7681" y1="228.9609" y2="228.9609"/><text fill="#000000" font-family="sans-serif" font-size="13" font-weight="bold" lengthAdjust="spacing" textLength="9.0454" x="292.3047" y="223.895">5</text><text fill="#000000" font-family="sans-serif" font-size="13" lengthAdjust="spacing" textLength="238.418" x="305.3501" y="223.895">Hi&#7875;n th&#7883; danh s&#225;ch ch&#7885;n (Dropdown)</text></g><g class="message" data-participant-1="N" data-participant-2="UI"><polygon fill="#181818" points="263.3047,254.0938,273.3047,258.0938,263.3047,262.0938,267.3047,258.0938" style="stroke:#181818;stroke-width:1;"/><line style="stroke:#181818;stroke-width:1;" x1="41.7866" x2="269.3047" y1="258.0938" y2="258.0938"/><text fill="#000000" font-family="sans-serif" font-size="13" font-weight="bold" lengthAdjust="spacing" textLength="9.0454" x="48.7866" y="253.0278">6</text><text fill="#000000" font-family="sans-serif" font-size="13" lengthAdjust="spacing" textLength="196.4727" x="61.832" y="253.0278">Ch&#7885;n v&#7853;t t&#432; &amp; Nh&#7853;p li&#7873;u l&#432;&#7907;ng</text></g><g class="message" data-participant-1="N" data-participant-2="UI"><polygon fill="#181818" points="263.3047,283.2266,273.3047,287.2266,263.3047,291.2266,267.3047,287.2266" style="stroke:#181818;stroke-width:1;"/><line style="stroke:#181818;stroke-width:1;" x1="41.7866" x2="269.3047" y1="287.2266" y2="287.2266"/><text fill="#000000" font-family="sans-serif" font-size="13" font-weight="bold" lengthAdjust="spacing" textLength="9.0454" x="48.7866" y="282.1606">7</text><text fill="#000000" font-family="sans-serif" font-size="13" lengthAdjust="spacing" textLength="111.0967" x="61.832" y="282.1606">Nh&#7845;n "X&#225;c nh&#7853;n"</text></g><g class="message" data-participant-1="UI" data-participant-2="C"><polygon fill="#181818" points="538.7681,312.3594,548.7681,316.3594,538.7681,320.3594,542.7681,316.3594" style="stroke:#181818;stroke-width:1;"/><line style="stroke:#181818;stroke-width:1;" x1="275.3047" x2="544.7681" y1="316.3594" y2="316.3594"/><text fill="#000000" font-family="sans-serif" font-size="13" font-weight="bold" lengthAdjust="spacing" textLength="9.0454" x="282.3047" y="311.2935">8</text><text fill="#000000" font-family="sans-serif" font-size="13" lengthAdjust="spacing" textLength="93.3042" x="295.3501" y="311.2935">saveLog(data)</text></g><g class="message" data-participant-1="C" data-participant-2="DB"><polygon fill="#181818" points="866.8789,341.4922,876.8789,345.4922,866.8789,349.4922,870.8789,345.4922" style="stroke:#181818;stroke-width:1;"/><line style="stroke:#181818;stroke-width:1;" x1="550.7681" x2="872.8789" y1="345.4922" y2="345.4922"/><text fill="#000000" font-family="sans-serif" font-size="13" font-weight="bold" lengthAdjust="spacing" textLength="9.0454" x="557.7681" y="340.4263">9</text><text fill="#000000" font-family="sans-serif" font-size="13" lengthAdjust="spacing" textLength="222.5933" x="570.8135" y="340.4263">INSERT INTO lich_su_canh_tac (...)</text></g><g class="message" data-participant-1="DB" data-participant-2="C"><polygon fill="#181818" points="561.7681,370.625,551.7681,374.625,561.7681,378.625,557.7681,374.625" style="stroke:#181818;stroke-width:1;"/><line style="stroke:#181818;stroke-width:1;stroke-dasharray:2,2;" x1="555.7681" x2="877.8789" y1="374.625" y2="374.625"/><text fill="#000000" font-family="sans-serif" font-size="13" font-weight="bold" lengthAdjust="spacing" textLength="18.0908" x="567.7681" y="369.5591">10</text><text fill="#000000" font-family="sans-serif" font-size="13" lengthAdjust="spacing" textLength="52.3301" x="589.8589" y="369.5591">Success</text></g><g class="message" data-participant-1="C" data-participant-2="UI"><polygon fill="#181818" points="286.3047,399.7578,276.3047,403.7578,286.3047,407.7578,282.3047,403.7578" style="stroke:#181818;stroke-width:1;"/><line style="stroke:#181818;stroke-width:1;stroke-dasharray:2,2;" x1="280.3047" x2="549.7681" y1="403.7578" y2="403.7578"/><text fill="#000000" font-family="sans-serif" font-size="13" font-weight="bold" lengthAdjust="spacing" textLength="18.0908" x="292.3047" y="398.6919">11</text><text fill="#000000" font-family="sans-serif" font-size="13" lengthAdjust="spacing" textLength="180.3115" x="314.3955" y="398.6919">Th&#244;ng b&#225;o "&#272;&#227; l&#432;u nh&#7853;t k&#253;"</text></g><!--SRC=[PP71Qjj048Rl-nI33a4kn0_WGmwMdTRWA6cibDx4QYMq8igCqUwwz5XowA4KyWWnfeSS0Zu42ZOzAVWzz2RPbTDOaDF0pZ_V_FyiDvhGt2HPnRZGL84NoleUi7x2t0Ek86G96KnvzHsyZmKdI8jc-nCXbCtcKSDr_Q-LNKsO8DGLbOxmlmN1_gtCgbOLi9Hhdd2LWNT1IkTLDliyRLkZ8MCX79zOqW02sMn_8mXR7WJWyotcThii00zRsTN4oOC1v9d-mdLafeNIVacyY2Ln7QU4UOy5JZGQ3c0sdew323x0wUNv6SmbnpWX15zIi_ahG4j38auMUj5Zeo4Sxz4E2Ojsfzwj7UpLuITxXLkqKyts5wGS9QXwAMHhsJhtHnNDK_g6lVUftd1mjB_Y74fB-s6WtAsRxGhpmuZh_q7mlbhuFZnsWYk-oAQK- -wedQIJS3Q-Z6o9pYrPo5YPM5YBiUO2_7w_tqquCq9aIdMYHT9zFYJrai1xlgjNpfVfdlu5]--></g></svg>