<svg xmlns="http://www.w3.org/2000/svg" xmlns:xlink="http://www.w3.org/1999/xlink" contentStyleType="text/css" data-diagram-type="SEQUENCE" height="415px" preserveAspectRatio="none" style="width:971px;height:415px;background:#FFFFFF;" version="1.1" viewBox="0 0 971 415" width="971px" zoomAndPan="magnify"><defs/><g><g><title>Kh.ch h.ng</title><rect fill="#000000" fill-opacity="0.00000" height="253.0625" width="8" x="45.4326" y="81.2969"/><line style="stroke:#181818;stroke-width:0.5;stroke-dasharray:5,5;" x1="49" x2="49" y1="81.2969" y2="334.3594"/></g><g><title>Tr.nh duy.t.App</title><rect fill="#000000" fill-opacity="0.00000" height="253.0625" width="8" x="333.3247" y="81.2969"/><line style="stroke:#181818;stroke-width:0.5;stroke-dasharray:5,5;" x1="337.0205" x2="337.0205" y1="81.2969" y2="334.3594"/></g><g><title>Truy xu.t Controller</title><rect fill="#000000" fill-opacity="0.00000" height="253.0625" width="8" x="532.8511" y="81.2969"/><line style="stroke:#181818;stroke-width:0.5;stroke-dasharray:5,5;" x1="536.4683" x2="536.4683" y1="81.2969" y2="334.3594"/></g><g><title>PostgreSQL</title><rect fill="#000000" fill-opacity="0.00000" height="253.0625" width="8" x="923.3149" y="81.2969"/><line style="stroke:#181818;stroke-width:0.5;stroke-dasharray:5,5;" x1="926.9385" x2="926.9385" y1="81.2969" y2="334.3594"/></g><g class="participant participant-head" data-participant="K"><text fill="#000000" font-family="sans-serif" font-size="14" lengthAdjust="spacing" textLength="82.8652" x="5" y="77.9951">Kh&#225;ch h&#224;ng</text><ellipse cx="49.4326" cy="13.5" fill="#E2E2F0" rx="8" ry="8" style="stroke:#181818;stroke-width:0.5;"/><path d="M49.4326,21.5 L49.4326,48.5 M36.4326,29.5 L62.4326,29.5 M49.4326,48.5 L36.4326,63.5 M49.4326,48.5 L62.4326,63.5" fill="none" style="stroke:#181818;stroke-width:0.5;"/></g><g class="participant participant-tail" data-participant="K"><text fill="#000000" font-family="sans-serif" font-size="14" lengthAdjust="spacing" textLength="82.8652" x="5" y="346.3545">Kh&#225;ch h&#224;ng</text><ellipse cx="49.4326" cy="358.1563" fill="#E2E2F0" rx="8" ry="8" style="stroke:#181818;stroke-width:0.5;"/><path d="M49.4326,366.1563 L49.4326,393.1563 M36.4326,374.1563 L62.4326,374.1563 M49.4326,393.1563 L36.4326,408.1563 M49.4326,393.1563 L62.4326,408.1563" fill="none" style="stroke:#181818;stroke-width:0.5;"/></g><g class="participant participant-head" data-participant="UI"><text fill="#000000" font-family="sans-serif" font-size="14" lengthAdjust="spacing" textLength="112.6084" x="278.0205" y="77.9951">Tr&#236;nh duy&#7879;t/App</text><path d="M316.8247,37 L316.8247,61 M316.8247,49 L333.8247,49" fill="none" style="stroke:#181818;stroke-width:0.5;"/><ellipse cx="345.8247" cy="49" fill="#E2E2F0" rx="12" ry="12" style="stroke:#181818;stroke-width:0.5;"/></g><g class="participant participant-tail" data-participant="UI"><text fill="#000000" font-family="sans-serif" font-size="14" lengthAdjust="spacing" textLength="112.6084" x="278.0205" y="346.3545">Tr&#236;nh duy&#7879;t/App</text><path d="M316.8247,353.6563 L316.8247,377.6563 M316.8247,365.6563 L333.8247,365.6563" fill="none" style="stroke:#181818;stroke-width:0.5;"/><ellipse cx="345.8247" cy="365.6563" fill="#E2E2F0" rx="12" ry="12" style="stroke:#181818;stroke-width:0.5;"/></g><g class="participant participant-head" data-participant="C"><text fill="#000000" font-family="sans-serif" font-size="14" lengthAdjust="spacing" textLength="140.7656" x="463.4683" y="77.9951">Truy xu&#7845;t Controller</text><ellipse cx="536.8511" cy="49" fill="#E2E2F0" rx="12" ry="12" style="stroke:#181818;stroke-width:0.5;"/><polygon fill="#181818" points="532.8511,37,538.8511,32,536.8511,37,538.8511,42,532.8511,37" style="stroke:#181818;stroke-width:1;"/></g><g class="participant participant-tail" data-participant="C"><text fill="#000000" font-family="sans-serif" font-size="14" lengthAdjust="spacing" textLength="140.7656" x="463.4683" y="346.3545">Truy xu&#7845;t Controller</text><ellipse cx="536.8511" cy="365.6563" fill="#E2E2F0" rx="12" ry="12" style="stroke:#181818;stroke-width:0.5;"/><polygon fill="#181818" points="532.8511,353.6563,538.8511,348.6563,536.8511,353.6563,538.8511,358.6563,532.8511,353.6563" style="stroke:#181818;stroke-width:1;"/></g><g class="participant participant-head" data-participant="DB"><text fill="#000000" font-family="sans-serif" font-size="14" lengthAdjust="spacing" textLength="80.7529" x="883.9385" y="77.9951">PostgreSQL</text><path d="M909.3149,29 C909.3149,19 927.3149,19 927.3149,19 C927.3149,19 945.3149,19 945.3149,29 L945.3149,55 C945.3149,65 927.3149,65 927.3149,65 C927.3149,65 909.3149,65 909.3149,55 L909.3149,29" fill="#E2E2F0" style="stroke:#181818;stroke-width:0.5;"/><path d="M909.3149,29 C909.3149,39 927.3149,39 927.3149,39 C927.3149,39 945.3149,39 945.3149,29" fill="none" style="stroke:#181818;stroke-width:0.5;"/></g><g class="participant participant-tail" data-participant="DB"><text fill="#000000" font-family="sans-serif" font-size="14" lengthAdjust="spacing" textLength="80.7529" x="883.9385" y="346.3545">PostgreSQL</text><path d="M909.3149,359.6563 C909.3149,349.6563 927.3149,349.6563 927.3149,349.6563 C927.3149,349.6563 945.3149,349.6563 945.3149,359.6563 L945.3149,385.6563 C945.3149,395.6563 927.3149,395.6563 927.3149,395.6563 C927.3149,395.6563 909.3149,395.6563 909.3149,385.6563 L909.3149,359.6563" fill="#E2E2F0" style="stroke:#181818;stroke-width:0.5;"/><path d="M909.3149,359.6563 C909.3149,369.6563 927.3149,369.6563 927.3149,369.6563 C927.3149,369.6563 945.3149,369.6563 945.3149,359.6563" fill="none" style="stroke:#181818;stroke-width:0.5;"/></g><g class="message" data-participant-1="K" data-participant-2="UI"><polygon fill="#181818" points="325.3247,108.4297,335.3247,112.4297,325.3247,116.4297,329.3247,112.4297" style="stroke:#181818;stroke-width:1;"/><line style="stroke:#181818;stroke-width:1;" x1="49.4326" x2="331.3247" y1="112.4297" y2="112.4297"/><text fill="#000000" font-family="sans-serif" font-size="13" font-weight="bold" lengthAdjust="spacing" textLength="9.0454" x="56.4326" y="107.3638">1</text><text fill="#000000" font-family="sans-serif" font-size="13" lengthAdjust="spacing" textLength="79.7266" x="69.478" y="107.3638">Qu&#233;t m&#227; QR</text></g><g class="message" data-participant-1="UI" data-participant-2="C"><polygon fill="#181818" points="524.8511,137.5625,534.8511,141.5625,524.8511,145.5625,528.8511,141.5625" style="stroke:#181818;stroke-width:1;"/><line style="stroke:#181818;stroke-width:1;" x1="337.3247" x2="530.8511" y1="141.5625" y2="141.5625"/><text fill="#000000" font-family="sans-serif" font-size="13" font-weight="bold" lengthAdjust="spacing" textLength="9.0454" x="344.3247" y="136.4966">2</text><text fill="#000000" font-family="sans-serif" font-size="13" lengthAdjust="spacing" textLength="158.7358" x="357.3701" y="136.4966">getProductInfo(ID_vung)</text></g><g class="message" data-participant-1="C" data-participant-2="DB"><polygon fill="#181818" points="915.3149,166.6953,925.3149,170.6953,915.3149,174.6953,919.3149,170.6953" style="stroke:#181818;stroke-width:1;"/><line style="stroke:#181818;stroke-width:1;" x1="536.8511" x2="921.3149" y1="170.6953" y2="170.6953"/><text fill="#000000" font-family="sans-serif" font-size="13" font-weight="bold" lengthAdjust="spacing" textLength="9.0454" x="543.8511" y="165.6294">3</text><text fill="#000000" font-family="sans-serif" font-size="13" lengthAdjust="spacing" textLength="279.3794" x="556.8965" y="165.6294">SELECT * FROM vung_trong WHERE id = ...</text></g><g class="message" data-participant-1="DB" data-participant-2="C"><polygon fill="#181818" points="547.8511,195.8281,537.8511,199.8281,547.8511,203.8281,543.8511,199.8281" style="stroke:#181818;stroke-width:1;"/><line style="stroke:#181818;stroke-width:1;stroke-dasharray:2,2;" x1="541.8511" x2="926.3149" y1="199.8281" y2="199.8281"/><text fill="#000000" font-family="sans-serif" font-size="13" font-weight="bold" lengthAdjust="spacing" textLength="9.0454" x="553.8511" y="194.7622">4</text><text fill="#000000" font-family="sans-serif" font-size="13" lengthAdjust="spacing" textLength="98.2617" x="566.8965" y="194.7622">Th&#244;ng tin v&#249;ng</text></g><g class="message" data-participant-1="C" data-participant-2="DB"><polygon fill="#181818" points="915.3149,224.9609,925.3149,228.9609,915.3149,232.9609,919.3149,228.9609" style="stroke:#181818;stroke-width:1;"/><line style="stroke:#181818;stroke-width:1;" x1="536.8511" x2="921.3149" y1="228.9609" y2="228.9609"/><text fill="#000000" font-family="sans-serif" font-size="13" font-weight="bold" lengthAdjust="spacing" textLength="9.0454" x="543.8511" y="223.895">5</text><text fill="#000000" font-family="sans-serif" font-size="13" lengthAdjust="spacing" textLength="353.4185" x="556.8965" y="223.895">SELECT * FROM lich_su_canh_tac WHERE vung_id = ...</text></g><g class="message" data-participant-1="DB" data-participant-2="C"><polygon fill="#181818" points="547.8511,254.0938,537.8511,258.0938,547.8511,262.0938,543.8511,258.0938" style="stroke:#181818;stroke-width:1;"/><line style="stroke:#181818;stroke-width:1;stroke-dasharray:2,2;" x1="541.8511" x2="926.3149" y1="258.0938" y2="258.0938"/><text fill="#000000" font-family="sans-serif" font-size="13" font-weight="bold" lengthAdjust="spacing" textLength="9.0454" x="553.8511" y="253.0278">6</text><text fill="#000000" font-family="sans-serif" font-size="13" lengthAdjust="spacing" textLength="203.5884" x="566.8965" y="253.0278">Danh s&#225;ch ho&#7841;t &#273;&#7897;ng (Nh&#7853;t k&#253;)</text></g><g class="message" data-participant-1="C" data-participant-2="UI"><polygon fill="#181818" points="348.3247,283.2266,338.3247,287.2266,348.3247,291.2266,344.3247,287.2266" style="stroke:#181818;stroke-width:1;"/><line style="stroke:#181818;stroke-width:1;stroke-dasharray:2,2;" x1="342.3247" x2="535.8511" y1="287.2266" y2="287.2266"/><text fill="#000000" font-family="sans-serif" font-size="13" font-weight="bold" lengthAdjust="spacing" textLength="9.0454" x="354.3247" y="282.1606">7</text><text fill="#000000" font-family="sans-serif" font-size="13" lengthAdjust="spacing" textLength="162.481" x="367.3701" y="282.1606">T&#7893;ng h&#7907;p d&#7919; li&#7879;u hi&#7875;n th&#7883;</text></g><g class="message" data-participant-1="UI" data-participant-2="K"><polygon fill="#181818" points="60.4326,312.3594,50.4326,316.3594,60.4326,320.3594,56.4326,316.3594" style="stroke:#181818;stroke-width:1;"/><line style="stroke:#181818;stroke-width:1;stroke-dasharray:2,2;" x1="54.4326" x2="336.3247" y1="316.3594" y2="316.3594"/><text fill="#000000" font-family="sans-serif" font-size="13" font-weight="bold" lengthAdjust="spacing" textLength="9.0454" x="66.4326" y="311.2935">8</text><text fill="#000000" font-family="sans-serif" font-size="13" lengthAdjust="spacing" textLength="250.8467" x="79.478" y="311.2935">Hi&#7875;n th&#7883; th&#244;ng tin &amp; Nh&#7853;t k&#253; s&#7843;n ph&#7849;m</text></g><!--SRC=[TP2nJy906CNt-ojU60oOW3k99j9Y8A02GXoRewqz8jmrxHsHsS71oS71JK8SI3GkBhPngl_8_ITU2r47NUvBtk_TU_a-ggJWQZRs8q9TAIAKEYnRkWmiU-H12JH6Xuo5uXwD5YWDe-oPCtXgeTCRkNSOXeLbr2Qku38IqzoY5hXIEdcIi3RYr8yAcqKyAkcOnZvAFH7B8FBF-jq2sGr2EgWUcAWw-YfRIyoo5Ve3CchdibL7uCjU93pboZQ_4EMsxSmL3oh4ohdTgEEisMrQG-pYQ71wZ1mwffq7E6yr1qrCFEoZLgiHku7g9dB8iZV3vOHZdhtpuB-iwSHbJgmSbtBcIEfk4ukAFs9jOqEyEQFGoLBYyqwd3wQfVC9qyY9ncNrKIDwstNYeqtk3cKvN8JoTlffASs45PiOrXpJajZY5-T2fe_LBDk_t5ZluAK2ianL7Q8Jrx0i0]--></g></svg>